<svg width="155" height="60" viewBox="0 0 184 60" fill="none" xmlns="http://www.w3.org/2000/svg">
<rect width="150" height="60" fill="#F5F5F5"/>
<path d="M12.0605 59.6767C11.5881 59.6767 11.1271 59.6707 10.6584 59.6601C9.68737 59.6475 8.71865 59.5629 7.76015 59.407C6.86639 59.253 6.00058 58.9664 5.19127 58.5568C4.38938 58.1506 3.658 57.618 3.02513 56.9794C2.38311 56.3482 1.84859 55.6162 1.44277 54.8124C1.03247 54.0033 0.748526 53.136 0.600815 52.2409C0.4413 51.279 0.354996 50.3063 0.342647 49.3314C0.332816 49.0041 0.319946 47.9145 0.319946 47.9145V12.0688C0.319946 12.0688 0.333653 10.9959 0.342724 10.6807C0.354548 9.7073 0.440351 8.73618 0.599389 7.77578C0.747372 6.87814 1.03154 6.0084 1.44206 5.19666C1.84639 4.39336 2.37794 3.66081 3.01609 3.02743C3.65353 2.38803 4.38726 1.85266 5.19051 1.44084C5.99796 1.03256 6.86213 0.74803 7.75408 0.596795C8.71574 0.439398 9.68782 0.354301 10.6622 0.342219L12.0613 0.323273H171.41L172.826 0.34298C173.792 0.354461 174.755 0.438799 175.708 0.595274C176.609 0.748406 177.482 1.03492 178.298 1.44539C179.908 2.27532 181.217 3.58835 182.043 5.20045C182.447 6.00658 182.727 6.86923 182.873 7.75912C183.034 8.7274 183.124 9.70614 183.142 10.6875C183.147 11.127 183.147 11.599 183.147 12.0688C183.159 12.6507 183.159 13.2046 183.159 13.763V46.2385C183.159 46.8022 183.159 47.3523 183.147 47.9069C183.147 48.4115 183.147 48.8738 183.141 49.3495C183.123 50.3134 183.034 51.2747 182.876 52.2257C182.731 53.1273 182.449 54.0013 182.039 54.817C181.63 55.6122 181.098 56.3378 180.464 56.9673C179.83 57.6093 179.098 58.1451 178.294 58.5539C177.48 58.9666 176.608 59.2542 175.708 59.407C174.749 59.5637 173.78 59.6483 172.809 59.6601C172.355 59.6707 171.88 59.6767 171.418 59.6767L169.737 59.6798L12.0605 59.6767Z" fill="black"/>
<path d="M37.372 30.4666C37.4059 27.8341 38.7849 25.4025 41.026 24.0237C39.6058 21.9939 37.3123 20.7531 34.8374 20.6756C32.2337 20.4021 29.7094 22.2348 28.3826 22.2348C27.0301 22.2348 24.9872 20.7027 22.7874 20.748C19.893 20.8416 17.26 22.4486 15.8519 24.9809C12.8531 30.1768 15.0899 37.8129 17.9625 42.0128C19.3997 44.0694 21.0794 46.3666 23.2772 46.2852C25.4279 46.1959 26.2312 44.9127 28.8273 44.9127C31.3993 44.9127 32.1529 46.2852 34.3954 46.2334C36.7032 46.1959 38.1572 44.1676 39.544 42.0916C40.5767 40.6262 41.3713 39.0066 41.8984 37.2929C39.1574 36.1327 37.3752 33.4449 37.372 30.4666V30.4666Z" fill="white"/>
<path d="M33.1364 17.9134C34.3947 16.4017 35.0147 14.4587 34.8645 12.497C32.9421 12.699 31.1663 13.6185 29.891 15.0722C28.6317 16.5065 27.9937 18.3829 28.1176 20.2882C30.0658 20.3082 31.9156 19.433 33.1364 17.9134V17.9134Z" fill="white"/>
<path fill-rule="evenodd" clip-rule="evenodd" d="M57.2191 41.0788H64.5586L66.3196 46.2871H69.4813L62.5295 27.0177H59.2997L52.3479 46.2871H55.4566L57.2191 41.0788ZM63.797 38.6754H57.9793L60.8488 30.2228H60.9291L63.797 38.6754Z" fill="white"/>
<path fill-rule="evenodd" clip-rule="evenodd" d="M78.6363 46.434C82.1599 46.434 84.4948 43.6291 84.4948 39.2634C84.4948 34.9097 82.1462 32.0912 78.5833 32.0912C76.7499 32.032 75.0325 32.9863 74.1133 34.5749H74.0603V32.2382H71.2711V50.9346H74.1526V43.9761H74.2193C75.0994 45.5747 76.815 46.5294 78.6363 46.434ZM77.8231 34.5491C80.0642 34.5491 81.533 36.4191 81.533 39.2634C81.533 42.1335 80.0642 43.9898 77.8231 43.9898C75.6215 43.9898 74.1405 42.0941 74.1405 39.2634C74.1405 36.4584 75.6215 34.5491 77.8231 34.5491Z" fill="white"/>
<path fill-rule="evenodd" clip-rule="evenodd" d="M94.0874 46.434C97.611 46.434 99.9459 43.6291 99.9459 39.2634C99.9459 34.9097 97.5973 32.0912 94.0343 32.0912C92.201 32.032 90.4835 32.9863 89.5643 34.5749H89.5113V32.2382H86.7222V50.9346H89.6037V43.9761H89.6704C90.5505 45.5747 92.2661 46.5294 94.0874 46.434ZM93.2742 34.5491C95.5153 34.5491 96.9841 36.4191 96.9841 39.2634H96.9841C96.9841 42.1335 95.5153 43.9898 93.2742 43.9898C91.0726 43.9898 89.5917 42.0941 89.5917 39.2634C89.5917 36.4584 91.0726 34.5491 93.2742 34.5491Z" fill="white"/>
<path d="M110.158 40.9181C110.371 42.829 112.226 44.0837 114.761 44.0837C117.19 44.0837 118.937 42.8289 118.937 41.106C118.937 39.6103 117.883 38.7148 115.388 38.101L112.893 37.4994C109.357 36.6448 107.715 34.99 107.715 32.3048C107.715 28.9801 110.611 26.6964 114.722 26.6964C118.79 26.6964 121.58 28.9801 121.673 32.3048H118.765C118.59 30.3818 117.002 29.221 114.681 29.221C112.359 29.221 110.771 30.3954 110.771 32.1048C110.771 33.4671 111.786 34.2687 114.267 34.8823L116.389 35.4036C120.339 36.3386 121.981 37.9267 121.981 40.7453C121.981 44.3503 119.111 46.6082 114.547 46.6082C110.277 46.6082 107.394 44.4033 107.208 40.918L110.158 40.9181Z" fill="white"/>
<path d="M128.2 28.9135V32.2382H130.869V34.5218H128.2V42.2668C128.2 43.47 128.734 44.0307 129.908 44.0307C130.225 44.0251 130.541 44.0029 130.856 43.964V46.234C130.328 46.3326 129.792 46.3773 129.255 46.3673C126.413 46.3673 125.305 45.299 125.305 42.5744V34.5218H123.263V32.2382H125.305V28.9135H128.2Z" fill="white"/>
<path fill-rule="evenodd" clip-rule="evenodd" d="M139.073 32.0654C135.017 32.0654 132.415 34.8431 132.415 39.2634C132.415 43.6958 134.991 46.4613 139.073 46.4613C143.157 46.4613 145.733 43.6958 145.733 39.2634C145.733 34.843 143.144 32.0654 139.073 32.0654ZM139.073 34.4415C141.408 34.4415 142.797 36.2312 142.797 39.2634H142.797C142.797 42.3077 141.408 44.0837 139.073 44.0837C136.738 44.0837 135.351 42.3077 135.351 39.2634C135.351 36.2448 136.738 34.4415 139.073 34.4415Z" fill="white"/>
<path d="M148.109 32.2382H150.857V34.6294H150.924C151.307 33.0901 152.716 32.0306 154.3 32.0912C154.632 32.09 154.964 32.1261 155.288 32.1988V34.8961C154.868 34.7679 154.431 34.709 153.993 34.7218C153.146 34.6874 152.326 35.0253 151.749 35.6467C151.171 36.2682 150.894 37.111 150.99 37.9541V46.287H148.109L148.109 32.2382Z" fill="white"/>
<path fill-rule="evenodd" clip-rule="evenodd" d="M162.529 46.4613C165.704 46.4613 168.186 44.7111 168.573 42.1607L165.837 42.1607C165.312 43.4643 163.994 44.2679 162.595 44.1367C161.547 44.1754 160.532 43.7613 159.81 43C159.087 42.2386 158.726 41.2033 158.819 40.1574V39.9832H168.734V38.9952C168.734 34.7355 166.291 32.0654 162.407 32.0654C158.458 32.0654 155.91 34.9234 155.91 39.33C155.91 43.7231 158.445 46.4613 162.529 46.4613ZM165.851 37.9677L158.832 37.9678C158.83 37.0192 159.206 36.109 159.878 35.4395C160.549 34.7699 161.46 34.3964 162.407 34.4021C163.348 34.3819 164.254 34.7552 164.908 35.432C165.561 36.1089 165.903 37.0279 165.851 37.9677Z" fill="white"/>
<path fill-rule="evenodd" clip-rule="evenodd" d="M60.8829 13.7827C60.0396 12.8915 58.8414 12.4258 57.6181 12.5136H54.2762V21.7725H57.6181C60.374 21.7725 61.9715 20.0722 61.9715 17.1142C62.1258 15.8966 61.7262 14.6739 60.8829 13.7827ZM57.4576 20.4631H55.7132V13.822H57.4576C58.3272 13.7737 59.1729 14.1169 59.7633 14.7576C60.3537 15.3983 60.6271 16.2696 60.5088 17.1331C60.6364 18.0002 60.3669 18.8787 59.775 19.5247C59.1831 20.1707 58.3319 20.5154 57.4576 20.4631Z" fill="white"/>
<path fill-rule="evenodd" clip-rule="evenodd" d="M65.1434 15.1478C64.0751 15.8112 63.475 17.0233 63.5948 18.2757C63.4728 19.5294 64.0723 20.7439 65.1415 21.4087C66.2107 22.0735 67.5642 22.0735 68.6334 21.4087C69.7026 20.7439 70.3021 19.5294 70.1801 18.2757C70.2998 17.0233 69.6997 15.8112 68.6315 15.1478C67.5633 14.4844 66.2116 14.4844 65.1434 15.1478ZM66.8897 15.8754C68.0829 15.8754 68.7628 16.7611 68.7628 18.2757H68.7628C68.7628 19.7963 68.0829 20.6813 66.8897 20.6813C65.692 20.6813 65.0182 19.8024 65.0182 18.2757C65.0182 16.7611 65.692 15.8754 66.8897 15.8754Z" fill="white"/>
<path d="M78.9338 21.7724H77.5044L76.0614 16.6262H75.9523L74.5153 21.7724H73.0995L71.175 14.785H72.5726L73.8233 20.1168H73.9263L75.3618 14.785H76.6837L78.1192 20.1168H78.2282L79.4729 14.785H80.8508L78.9338 21.7724Z" fill="white"/>
<path d="M82.4695 14.7851H83.796V15.8951H83.8989C84.257 15.0778 85.0938 14.5779 85.9825 14.6502C86.6707 14.5984 87.345 14.8626 87.8152 15.3682C88.2853 15.8737 88.5002 16.5658 88.3992 17.249V21.7723H87.0213V17.5953C87.0213 16.4724 86.5337 15.914 85.5146 15.914C85.0478 15.8922 84.5949 16.0756 84.2744 16.4159C83.954 16.7563 83.798 17.2197 83.8475 17.6847V21.7724H82.4695L82.4695 14.7851Z" fill="white"/>
<path d="M90.5948 12.0574H91.9728V21.7723H90.5948V12.0574Z" fill="white"/>
<path fill-rule="evenodd" clip-rule="evenodd" d="M95.4371 15.1477C94.3688 15.8111 93.7686 17.0232 93.8882 18.2757C93.7664 19.5295 94.366 20.7439 95.4353 21.4087C96.5045 22.0735 97.8581 22.0735 98.9273 21.4087C99.9965 20.7439 100.596 19.5295 100.474 18.2757C100.594 17.0232 99.9938 15.8111 98.9255 15.1477C97.8572 14.4843 96.5054 14.4843 95.4371 15.1477ZM97.1832 15.8754C98.3764 15.8754 99.0563 16.7611 99.0563 18.2757H99.0563C99.0563 19.7964 98.3764 20.6813 97.1832 20.6813C95.9855 20.6813 95.3117 19.8024 95.3117 18.2757C95.3117 16.7611 95.9854 15.8754 97.1832 15.8754Z" fill="white"/>
<path fill-rule="evenodd" clip-rule="evenodd" d="M104.522 17.7105C102.861 17.8135 101.925 18.5386 101.925 19.7963C101.927 20.3927 102.182 20.9603 102.625 21.3587C103.068 21.7571 103.66 21.9492 104.252 21.8875C105.098 21.9266 105.899 21.5075 106.35 20.7904H106.459V21.7724H107.785V16.9982C107.785 15.5223 106.798 14.6502 105.047 14.6502C103.463 14.6502 102.335 15.42 102.195 16.6202H103.529C103.681 16.1262 104.215 15.8435 104.984 15.8435C105.926 15.8435 106.413 16.2603 106.413 16.9982V17.6014L104.522 17.7105ZM106.413 18.6151V19.1993C106.383 19.6446 106.174 20.0586 105.833 20.3466C105.492 20.6345 105.049 20.7717 104.605 20.7268C103.856 20.7268 103.31 20.3608 103.31 19.7319C103.31 19.1159 103.747 18.7886 104.708 18.7242L106.413 18.6151Z" fill="white"/>
<path fill-rule="evenodd" clip-rule="evenodd" d="M112.494 14.6691C110.73 14.6691 109.596 16.0678 109.596 18.2757C109.596 20.4889 110.718 21.8876 112.494 21.8875C113.395 21.9207 114.239 21.4511 114.687 20.6684H114.796V21.7723H116.116V12.0574H114.738V15.895H114.635C114.219 15.1057 113.385 14.6281 112.494 14.6691ZM112.885 20.6495C111.717 20.6495 111.019 19.7577 111.019 18.2757H111.019C111.019 16.8058 111.725 15.9079 112.885 15.9079C114.039 15.9079 114.764 16.8255 114.764 18.2818C114.764 19.7448 114.046 20.6495 112.885 20.6495Z" fill="white"/>
<path fill-rule="evenodd" clip-rule="evenodd" d="M123.366 15.1478C122.298 15.8112 121.698 17.0233 121.817 18.2757C121.695 19.5294 122.295 20.7439 123.364 21.4087C124.433 22.0735 125.787 22.0735 126.856 21.4087C127.925 20.7439 128.525 19.5294 128.403 18.2757C128.522 17.0233 127.922 15.8112 126.854 15.1478C125.786 14.4844 124.434 14.4844 123.366 15.1478ZM125.112 15.8754C126.305 15.8754 126.985 16.7611 126.985 18.2757C126.985 19.7963 126.305 20.6813 125.112 20.6813C123.915 20.6813 123.241 19.8024 123.241 18.2757C123.241 16.7611 123.914 15.8754 125.112 15.8754Z" fill="white"/>
<path d="M130.251 14.7851H131.578V15.8951H131.681C132.039 15.0778 132.876 14.5779 133.764 14.6502C134.453 14.5984 135.127 14.8626 135.597 15.3682C136.067 15.8737 136.282 16.5658 136.181 17.249V21.7723H134.803V17.5953C134.803 16.4724 134.316 15.914 133.297 15.914C132.83 15.8922 132.377 16.0756 132.056 16.4159C131.736 16.7563 131.58 17.2197 131.629 17.6847V21.7724H130.251V14.7851Z" fill="white"/>
<path d="M143.967 13.0454V14.8169H145.48V15.9784H143.967V19.5713C143.967 20.3032 144.269 20.6237 144.955 20.6237C145.13 20.6232 145.306 20.6125 145.48 20.5919V21.7405C145.233 21.7848 144.982 21.8084 144.73 21.811C143.198 21.811 142.588 21.2715 142.588 19.9244V15.9783H141.479V14.8168H142.588V13.0454H143.967Z" fill="white"/>
<path d="M147.362 12.0574H148.728V15.9079H148.837C149.212 15.0835 150.064 14.583 150.966 14.6562C151.65 14.619 152.315 14.889 152.78 15.3927C153.245 15.8965 153.462 16.5815 153.371 17.2611V21.7724H151.991V17.6013C151.991 16.4853 151.472 15.92 150.498 15.92C150.019 15.8807 149.547 16.0551 149.208 16.3966C148.869 16.7382 148.698 17.212 148.74 17.6915V21.7723H147.362L147.362 12.0574Z" fill="white"/>
<path fill-rule="evenodd" clip-rule="evenodd" d="M158.38 21.9072C159.744 22.0553 161.019 21.2037 161.405 19.8857L160.079 19.8857C159.748 20.4791 159.092 20.8138 158.418 20.7328C157.898 20.7386 157.399 20.5246 157.045 20.1435C156.691 19.7624 156.514 19.2495 156.558 18.7311V18.6538H161.488V18.1726C161.488 15.9785 160.316 14.6502 158.374 14.6502C157.44 14.6422 156.549 15.0399 155.932 15.7403C155.314 16.4407 155.03 17.3748 155.154 18.3007C155.027 19.224 155.312 20.1566 155.933 20.8511C156.554 21.5456 157.449 21.9318 158.38 21.9072ZM160.085 17.6339H156.558C156.552 17.1521 156.74 16.6882 157.081 16.3474C157.421 16.0066 157.885 15.8178 158.366 15.8238C158.841 15.8129 159.299 16.0033 159.626 16.348C159.953 16.6927 160.12 17.1597 160.085 17.6339Z" fill="white"/>
</svg>
