<svg width="35" height="36" viewBox="0 0 35 36" fill="none" xmlns="http://www.w3.org/2000/svg">
<rect width="35" height="36" fill="#F5F5F5"/>
<circle cx="17.249" cy="18.0152" r="17.1592" fill="#3993CA" fill-opacity="0.2"/>
<path d="M14.3166 11.7595C14.8511 10.8877 15.6823 10.2088 16.6774 9.83141C17.6725 9.45402 18.774 9.3999 19.8058 9.67771C20.8376 9.95551 21.7401 10.5492 22.3692 11.3639C22.9982 12.1785 23.3174 13.1672 23.2757 14.1717C23.2341 15.1763 22.8339 16.1387 22.1393 16.9053C21.4447 17.6718 20.4957 18.1982 19.444 18.4002C18.3923 18.6022 17.2986 18.4683 16.3378 18.0198C15.377 17.5713 14.6045 16.8341 14.1438 15.926C13.836 16.1369 13.4643 16.2502 13.083 16.2496H12.483V16.5362C12.483 16.7497 12.5694 16.9441 12.711 17.0913C12.832 16.9632 12.9918 16.8726 13.1691 16.8317C13.3464 16.7908 13.5328 16.8014 13.7035 16.8622C13.8743 16.923 14.0211 17.031 14.1247 17.1719C14.2282 17.3128 14.2834 17.4798 14.283 17.6508C14.2829 17.7683 14.2566 17.8844 14.2057 17.9918C14.1549 18.0991 14.0807 18.1954 13.9878 18.2743C13.8949 18.3532 13.7855 18.4131 13.6664 18.4501C13.5474 18.4871 13.4214 18.5004 13.2966 18.4891C12.7561 18.4713 12.2441 18.2578 11.8685 17.8935C11.4929 17.5292 11.2829 17.0426 11.283 16.5362V12.3202C11.283 12.1712 11.3462 12.0283 11.4587 11.923C11.5712 11.8176 11.7238 11.7584 11.883 11.7584H14.283L14.3166 11.7595ZM12.483 15.126H13.083C13.2421 15.126 13.3947 15.0668 13.5072 14.9614C13.6197 14.8561 13.683 14.7132 13.683 14.5642V14.1484C13.6794 14.0481 13.6794 13.9476 13.683 13.8473V12.8821H12.483V15.126ZM10.0806 21.8634C10.0806 20.6128 11.1642 19.6161 12.4914 19.6161H24.4806C25.1171 19.6161 25.7275 19.8529 26.1776 20.2743C26.6277 20.6958 26.8806 21.2674 26.8806 21.8634C26.8806 23.7635 25.881 25.1962 24.3186 26.1299C22.7802 27.048 20.7066 27.4817 18.4806 27.4817C16.2546 27.4817 14.181 27.048 12.6426 26.1299C11.0802 25.1973 10.0806 23.7624 10.0806 21.8634Z" fill="#058868"/>
</svg>
