<svg width="35" height="35" viewBox="0 0 35 35" fill="none" xmlns="http://www.w3.org/2000/svg">
<circle cx="17.1592" cy="17.1592" r="17.1592" fill="#3993CA" fill-opacity="0.2"/>
<path d="M25.2365 13.7968L22.9665 11.6712C23.0365 11.2779 23.1465 10.9128 23.2865 10.5944C23.3825 10.3812 23.4207 10.149 23.3976 9.91863C23.3746 9.68824 23.2911 9.46676 23.1544 9.27394C23.0178 9.08112 22.8324 8.92294 22.6146 8.81351C22.3969 8.70407 22.1536 8.64678 21.9065 8.64673C20.2665 8.64673 18.8165 9.38647 17.9065 10.5195H12.9065C9.86649 10.5195 7.40649 12.823 7.40649 15.6695C7.40649 18.5161 9.90649 26.4379 9.90649 26.4379H15.4065V24.5651H17.4065V26.4379H22.9065L24.5865 21.2035L27.4065 20.3233V13.7968H25.2365ZM18.4065 15.2014H13.4065V13.3286H18.4065V15.2014ZM21.4065 17.0741C20.8565 17.0741 20.4065 16.6527 20.4065 16.1377C20.4065 15.6227 20.8565 15.2014 21.4065 15.2014C21.9565 15.2014 22.4065 15.6227 22.4065 16.1377C22.4065 16.6527 21.9565 17.0741 21.4065 17.0741Z" fill="#058868"/>
</svg>
