<svg width="160" height="60" viewBox="0 0 203 60" fill="none" xmlns="http://www.w3.org/2000/svg">
<rect width="150" height="60" fill="#F5F5F5"/>
<rect width="200" height="60" rx="7.5" fill="black"/>
<path d="M71.3056 15.36C71.3555 16.4716 70.9482 17.5552 70.1779 18.36C69.3139 19.2498 68.1106 19.7299 66.8697 19.68C65.6225 19.7077 64.4195 19.219 63.5465 18.33C61.7242 16.4705 61.7242 13.4995 63.5465 11.64C64.9163 10.3049 66.9556 9.92048 68.7193 10.665C69.2615 10.8873 69.7452 11.2312 70.1328 11.67L69.3358 12.465C68.7303 11.7374 67.8164 11.3372 66.8697 11.385C65.2482 11.3962 63.8333 12.4848 63.4106 14.0464C62.9879 15.608 63.6612 17.2592 65.0566 18.083C66.4521 18.9068 68.227 18.7011 69.3959 17.58C69.8553 17.0776 70.1216 16.4294 70.1478 15.75H66.8697V14.67H71.2455C71.2797 14.8985 71.2998 15.129 71.3056 15.36V15.36Z" fill="white" stroke="white" stroke-width="0.5"/>
<path d="M78.1926 11.61H74.1326V14.46H77.8317V15.54H74.1326V18.39H78.1926V19.5H72.9597V10.5H78.1926V11.61Z" fill="white" stroke="white" stroke-width="0.5"/>
<path d="M83.1247 19.5H81.9669V11.61H79.4407V10.5H85.7111V11.61H83.1247V19.5Z" fill="white" stroke="white" stroke-width="0.5"/>
<path d="M90.132 19.5V10.5H91.2899V19.5H90.132Z" fill="white" stroke="white" stroke-width="0.5"/>
<path d="M96.4325 19.5H95.2746V11.61H92.7484V10.5H98.9437V11.61H96.4325V19.5Z" fill="white" stroke="white" stroke-width="0.5"/>
<path fill-rule="evenodd" clip-rule="evenodd" d="M107.379 19.6977C108.62 19.6977 109.81 19.2057 110.688 18.33C111.572 17.4505 112.051 16.2448 112.011 15C112.038 13.7573 111.561 12.5564 110.688 11.67C109.821 10.7793 108.624 10.2854 107.379 10.305C106.133 10.2725 104.931 10.7685 104.071 11.67C102.307 13.5411 102.307 16.4589 104.071 18.33C104.948 19.2057 106.139 19.6977 107.379 19.6977ZM107.379 18.6023C106.458 18.6023 105.575 18.2341 104.928 17.58C103.583 16.1218 103.583 13.8782 104.928 12.42C105.575 11.7659 106.458 11.3977 107.379 11.3977C108.301 11.3977 109.183 11.7659 109.83 12.42C111.176 13.8782 111.176 16.1218 109.83 17.58C109.183 18.2341 108.301 18.6023 107.379 18.6023Z" fill="white"/>
<path d="M110.688 18.33L110.511 18.1528L110.511 18.1531L110.688 18.33ZM112.011 15L111.761 14.9945L111.761 15.008L112.011 15ZM110.688 11.67L110.508 11.8444L110.51 11.8455L110.688 11.67ZM107.379 10.305L107.373 10.5551L107.383 10.555L107.379 10.305ZM104.071 11.67L103.89 11.4975L103.889 11.4985L104.071 11.67ZM104.071 18.33L103.889 18.5016L103.895 18.5069L104.071 18.33ZM104.928 17.58L104.745 17.7496L104.751 17.7558L104.928 17.58ZM104.928 12.42L104.751 12.2441L104.745 12.2505L104.928 12.42ZM109.83 12.42L110.014 12.2504L110.008 12.2442L109.83 12.42ZM109.83 17.58L110.008 17.7559L110.014 17.7495L109.83 17.58ZM110.511 18.1531C109.681 18.9819 108.554 19.4477 107.379 19.4477V19.9477C108.687 19.9477 109.94 19.4295 110.864 18.5069L110.511 18.1531ZM111.761 15.008C111.799 16.1835 111.346 17.3221 110.511 18.1528L110.864 18.5072C111.797 17.5789 112.303 16.3062 112.261 14.992L111.761 15.008ZM110.51 11.8455C111.336 12.6838 111.787 13.8195 111.761 14.9945L112.261 15.0055C112.29 13.6952 111.787 12.429 110.866 11.4945L110.51 11.8455ZM107.383 10.555C108.559 10.5364 109.69 11.0031 110.508 11.8444L110.867 11.4956C109.952 10.5555 108.689 10.0343 107.376 10.055L107.383 10.555ZM104.252 11.8425C105.063 10.9922 106.197 10.5242 107.373 10.5549L107.386 10.0551C106.069 10.0207 104.799 10.5448 103.89 11.4975L104.252 11.8425ZM104.253 18.1585C102.58 16.3837 102.58 13.6163 104.253 11.8415L103.889 11.4985C102.034 13.4659 102.034 16.5341 103.889 18.5015L104.253 18.1585ZM107.379 19.4477C106.205 19.4477 105.078 18.9819 104.248 18.1531L103.895 18.5069C104.819 19.4295 106.072 19.9477 107.379 19.9477V19.4477ZM104.751 17.7558C105.445 18.4574 106.392 18.8523 107.379 18.8523V18.3523C106.525 18.3523 105.706 18.0107 105.106 17.4042L104.751 17.7558ZM104.745 12.2505C103.311 13.8045 103.311 16.1955 104.745 17.7495L105.112 17.4105C103.855 16.048 103.855 13.952 105.112 12.5895L104.745 12.2505ZM107.379 11.1477C106.392 11.1477 105.445 11.5426 104.751 12.2442L105.106 12.5958C105.706 11.9893 106.525 11.6477 107.379 11.6477V11.1477ZM110.008 12.2442C109.314 11.5426 108.367 11.1477 107.379 11.1477V11.6477C108.234 11.6477 109.053 11.9893 109.653 12.5958L110.008 12.2442ZM110.014 17.7495C111.448 16.1955 111.448 13.8045 110.014 12.2505L109.647 12.5895C110.904 13.952 110.904 16.048 109.647 17.4105L110.014 17.7495ZM107.379 18.8523C108.367 18.8523 109.314 18.4574 110.008 17.7558L109.653 17.4042C109.053 18.0107 108.234 18.3523 107.379 18.3523V18.8523Z" fill="white"/>
<path d="M113.65 19.5V10.5H115.048L119.439 17.505V17.505V15.765V10.5H120.597V19.5H119.394L114.808 12.165V12.165V13.89V19.5H113.65Z" fill="white" stroke="white" stroke-width="0.5"/>
<path fill-rule="evenodd" clip-rule="evenodd" d="M71.7868 34.59V37.29H78.2828C78.181 38.5617 77.651 39.7617 76.7791 40.695C75.4614 42.0343 73.6363 42.7538 71.7568 42.675C67.7705 42.675 64.539 39.4515 64.539 35.475C64.539 31.4986 67.7705 28.275 71.7568 28.275C73.5919 28.2478 75.364 28.943 76.6889 30.21L78.5986 28.305C76.7881 26.5187 74.333 25.5348 71.7868 25.575C68.1463 25.4337 64.72 27.2905 62.8576 30.4141C60.9952 33.5377 60.9952 37.4273 62.8576 40.5509C64.72 43.6745 68.1463 45.5313 71.7868 45.39C74.3885 45.4937 76.9108 44.484 78.7189 42.615C80.298 40.8846 81.1394 38.6088 81.0647 36.27C81.0701 35.7071 81.0248 35.1448 80.9293 34.59H71.7868ZM88.4479 32.625C84.9101 32.6333 82.0488 35.5009 82.0572 39.03C82.0655 42.5591 84.9401 45.4132 88.4779 45.405C92.0157 45.3967 94.877 42.5291 94.8687 39C94.8934 37.2966 94.2239 35.6561 93.0135 34.4543C91.803 33.2525 90.1554 32.5923 88.4479 32.625ZM96.0717 39.03C96.0634 35.5009 98.9246 32.6333 102.462 32.625C104.17 32.5923 105.818 33.2525 107.028 34.4543C108.238 35.6561 108.908 37.2966 108.883 39C108.891 42.5291 106.03 45.3967 102.492 45.405C98.9547 45.4132 96.08 42.5591 96.0717 39.03ZM98.6911 40.6777C99.3778 42.1115 100.873 42.9809 102.462 42.87C103.46 42.8469 104.406 42.4229 105.085 41.6943C105.765 40.9656 106.12 39.994 106.071 39C106.067 37.411 105.09 35.9858 103.607 35.4061C102.124 34.8265 100.436 35.2101 99.3512 36.3736C98.2662 37.537 98.0045 39.2438 98.6911 40.6777ZM84.6766 40.6777C85.3633 42.1115 86.8588 42.9809 88.4479 42.87C89.4453 42.8469 90.391 42.4229 91.0705 41.6943C91.75 40.9656 92.1057 39.994 92.0568 39C92.0529 37.411 91.0756 35.9858 89.5925 35.4061C88.1093 34.8265 86.4216 35.2101 85.3366 36.3736C84.2517 37.537 83.9899 39.2438 84.6766 40.6777ZM134.446 32.625C136.939 32.7166 139.117 34.3338 139.92 36.69L140.235 37.35L131.679 40.875C132.212 42.0962 133.443 42.865 134.777 42.81C136.062 42.8225 137.258 42.1546 137.92 41.055L140.1 42.555C138.547 44.9021 135.63 45.9492 132.934 45.1277C130.237 44.3063 128.405 41.8122 128.431 39C128.327 37.3448 128.915 35.7205 130.054 34.5128C131.194 33.3051 132.784 32.6218 134.446 32.625ZM131.198 38.82C131.137 37.8788 131.457 36.9524 132.088 36.2498C132.719 35.5471 133.607 35.1273 134.551 35.085C135.542 35.0247 136.472 35.5626 136.912 36.45L131.198 38.82ZM127.063 45H124.251V26.25H127.063V45ZM119.65 34.05H119.544C118.694 33.0843 117.464 32.5365 116.176 32.55C112.763 32.7151 110.081 35.5237 110.081 38.9325C110.081 42.3413 112.763 45.1499 116.176 45.315C117.467 45.3408 118.702 44.7908 119.544 43.815H119.65V44.73C119.65 47.175 118.341 48.48 116.236 48.48C114.798 48.4485 113.521 47.5539 113.003 46.215L110.567 47.22C111.489 49.53 113.744 51.0334 116.236 51C119.529 51 122.251 49.065 122.251 44.355V33H119.65V34.05ZM112.779 39.0075C112.779 41.0513 114.372 42.7428 116.417 42.87C117.394 42.8325 118.313 42.3977 118.961 41.6667C119.609 40.9357 119.928 39.9721 119.845 39C119.919 38.0314 119.596 37.0742 118.95 36.3475C118.304 35.6208 117.39 35.1869 116.417 35.145C114.372 35.2722 112.779 36.9637 112.779 39.0075ZM153.092 26.25H146.355V45H149.167V37.89H153.092C155.276 38.0465 157.366 36.9728 158.506 35.1075C159.646 33.2422 159.646 30.8978 158.506 29.0325C157.366 27.1672 155.276 26.0935 153.092 26.25ZM149.167 35.25H153.092L153.152 35.28C154.302 35.28 155.364 34.6682 155.939 33.675C156.514 32.6818 156.514 31.4582 155.939 30.465C155.364 29.4718 154.302 28.86 153.152 28.86H149.167V35.25ZM170.445 32.565C168.352 32.4363 166.383 33.5628 165.437 35.43L167.919 36.465C168.431 35.5439 169.438 35.0092 170.49 35.1C171.211 35.016 171.936 35.2245 172.501 35.6786C173.067 36.1327 173.426 36.7944 173.497 37.515V37.695C172.593 37.2209 171.587 36.9737 170.565 36.975C167.889 36.975 165.152 38.475 165.152 41.205C165.205 42.3774 165.733 43.478 166.614 44.2554C167.496 45.0328 168.655 45.4206 169.828 45.33C171.265 45.4093 172.633 44.7098 173.407 43.5H173.497V45H176.204V37.785C176.204 34.5 173.708 32.595 170.505 32.595L170.445 32.565ZM167.904 41.25C167.904 42.375 169.182 42.84 170.099 42.84L170.159 42.87C171.859 42.8362 173.272 41.5547 173.467 39.87C172.687 39.4356 171.804 39.218 170.911 39.24C169.497 39.24 167.904 39.75 167.904 41.25ZM186.068 33L182.85 41.13H182.76L179.422 33H176.415L181.422 44.37L178.565 50.685H181.497L189.196 33H186.068ZM163.603 45H160.806V26.25H163.603V45Z" fill="white"/>
<path d="M15.6987 11.31C15.2032 11.8944 14.9503 12.6457 14.9919 13.41V46.59C14.9408 47.3556 15.1948 48.1103 15.6987 48.69L15.8039 48.81L34.4348 30.225V29.775L15.8039 11.205L15.6987 11.31Z" fill="url(#paint0_linear_0_1)"/>
<path d="M40.6 36.42L34.4348 30.225V29.775L40.6 23.58L40.7353 23.67L48.1185 27.84C50.2237 29.025 50.2237 30.975 48.1185 32.175L40.7654 36.345L40.6 36.42Z" fill="url(#paint1_linear_0_1)"/>
<path d="M40.7804 36.33L34.4348 30L15.6987 48.69C16.5754 49.4685 17.8839 49.5126 18.8113 48.795L40.7804 36.33" fill="url(#paint2_linear_0_1)"/>
<path d="M40.7804 23.67L18.8113 11.22C17.8895 10.4921 16.5767 10.53 15.6987 11.31L34.4348 30L40.7804 23.67Z" fill="url(#paint3_linear_0_1)"/>
<path opacity="0.2" d="M40.6 36.195L18.8113 48.57C17.9214 49.24 16.6939 49.24 15.8039 48.57V48.57L15.6987 48.675V48.675L15.8039 48.795V48.795C16.6939 49.465 17.9214 49.465 18.8113 48.795L40.7804 36.33L40.6 36.195Z" fill="black"/>
<path opacity="0.12" d="M15.6987 48.48C15.2157 47.885 14.979 47.1284 15.0371 46.365V46.59C14.9859 47.3556 15.2399 48.1103 15.7438 48.69L15.8491 48.585L15.6987 48.48Z" fill="black"/>
<path opacity="0.12" d="M48.1185 31.95L40.6 36.195L40.7353 36.33L48.1185 32.16C49.0063 31.7855 49.6178 30.9569 49.7124 30V30C49.5218 30.8657 48.9301 31.5894 48.1185 31.95Z" fill="black"/>
<path opacity="0.25" d="M18.8114 11.43L48.1185 28.05C48.9302 28.4106 49.5218 29.1343 49.7125 30V30C49.6178 29.0431 49.0063 28.2145 48.1185 27.84L18.8114 11.22C16.7212 10.02 14.9919 11.01 14.9919 13.41V13.635C15.0371 11.235 16.7212 10.245 18.8114 11.43Z" fill="white"/>
<defs>
<linearGradient id="paint0_linear_0_1" x1="26.2718" y1="-11.328" x2="-3.55308" y2="-3.36955" gradientUnits="userSpaceOnUse">
<stop stop-color="#00A0FF"/>
<stop offset="0.01" stop-color="#00A1FF"/>
<stop offset="0.26" stop-color="#00BEFF"/>
<stop offset="0.51" stop-color="#00D2FF"/>
<stop offset="0.76" stop-color="#00DFFF"/>
<stop offset="1" stop-color="#00E3FF"/>
</linearGradient>
<linearGradient id="paint1_linear_0_1" x1="50.8703" y1="14.6995" x2="14.4957" y2="14.6995" gradientUnits="userSpaceOnUse">
<stop stop-color="#FFE000"/>
<stop offset="0.41" stop-color="#FFBD00"/>
<stop offset="0.78" stop-color="#FFA500"/>
<stop offset="1" stop-color="#FF9C00"/>
</linearGradient>
<linearGradient id="paint2_linear_0_1" x1="15.1686" y1="20.2791" x2="-8.74544" y2="60.5298" gradientUnits="userSpaceOnUse">
<stop stop-color="#FF3A44"/>
<stop offset="1" stop-color="#C31162"/>
</linearGradient>
<linearGradient id="paint3_linear_0_1" x1="1.07504" y1="6.14839" x2="11.7459" y2="24.1232" gradientUnits="userSpaceOnUse">
<stop stop-color="#32A071"/>
<stop offset="0.07" stop-color="#2DA771"/>
<stop offset="0.48" stop-color="#15CF74"/>
<stop offset="0.8" stop-color="#06E775"/>
<stop offset="1" stop-color="#00F076"/>
</linearGradient>
</defs>
</svg>
