<svg width="505" height="511" viewBox="0 0 505 511" fill="none" xmlns="http://www.w3.org/2000/svg">
<rect width="505" height="511" fill="#F5F5F5"/>
<path d="M139.815 290.602C128.636 285.118 117.082 280.436 105.238 276.594C88.1713 271.341 68.0345 276.15 67.591 281.835C67.1474 287.52 70.1825 284.917 74.1631 291.081C78.1438 297.244 76.3461 311.649 82.0427 324.782C87.7393 337.915 104.794 344.475 104.794 344.475L139.815 290.602Z" fill="#92E3A9" stroke="#263238" stroke-linecap="round" stroke-linejoin="round"/>
<path opacity="0.3" d="M128.433 303.303C128.433 303.303 102.168 286.668 86.8522 280.972C71.5366 275.275 70.6611 283.598 70.6611 283.598C73.1808 284.523 75.3431 286.222 76.8382 288.451C78.3334 290.68 79.0846 293.325 78.9843 296.007C78.9843 305.836 83.8988 326.195 95.8408 330.397C107.783 334.599 128.433 303.303 128.433 303.303Z" fill="black"/>
<path d="M315.846 321.89C322.71 319.282 326.005 311.193 323.205 303.822C320.405 296.451 312.571 292.59 305.706 295.197C298.842 297.805 295.546 305.894 298.346 313.265C301.146 320.636 308.981 324.497 315.846 321.89Z" fill="#92E3A9" stroke="#263238" stroke-linecap="round" stroke-linejoin="round"/>
<path d="M127.651 461.303L142.383 505.499C142.782 506.696 143.549 507.738 144.573 508.475C145.598 509.213 146.829 509.609 148.091 509.608H171.053C172.227 509.61 173.377 509.267 174.358 508.621C175.34 507.976 176.11 507.057 176.574 505.978L186.847 482.14" fill="#92E3A9"/>
<path opacity="0.3" d="M135.04 461.303L147.227 505.498C147.458 506.608 148.046 507.611 148.903 508.354C149.759 509.096 150.835 509.537 151.967 509.608H171.006C172.052 509.554 173.055 509.175 173.875 508.524C174.695 507.874 175.292 506.983 175.582 505.977L184.104 482.14" fill="black"/>
<path d="M127.651 461.303L142.383 505.499C142.782 506.696 143.549 507.738 144.573 508.475C145.598 509.213 146.829 509.609 148.091 509.608H171.053C172.227 509.61 173.377 509.267 174.358 508.621C175.34 507.976 176.11 507.057 176.574 505.978L186.847 482.14" stroke="#263238" stroke-linecap="round" stroke-linejoin="round"/>
<path d="M238.455 461.303L223.735 505.499C223.336 506.696 222.569 507.738 221.545 508.475C220.52 509.213 219.289 509.609 218.027 509.608H195.089C193.914 509.61 192.765 509.267 191.783 508.621C190.801 507.976 190.031 507.057 189.567 505.977L179.294 482.14" fill="#263238"/>
<path d="M238.455 461.303L223.735 505.499C223.336 506.696 222.569 507.738 221.545 508.475C220.52 509.213 219.289 509.609 218.027 509.608H195.089C193.914 509.61 192.765 509.267 191.783 508.621C190.801 507.976 190.031 507.057 189.567 505.977L179.294 482.14" stroke="#263238" stroke-linecap="round" stroke-linejoin="round"/>
<path d="M287.239 461.303L272.507 505.499C272.107 506.696 271.341 507.738 270.316 508.475C269.292 509.213 268.061 509.609 266.799 509.608H243.837C242.662 509.61 241.513 509.267 240.531 508.621C239.55 507.976 238.779 507.057 238.315 505.978L228.043 482.14" fill="#92E3A9"/>
<path opacity="0.3" d="M276.803 461.303L266.729 505.498C266.168 507.95 264.604 509.608 262.83 509.608H247.129C245.495 509.608 244.012 508.183 243.358 505.977L233.599 482.63" fill="black"/>
<path d="M287.239 461.303L272.507 505.499C272.107 506.696 271.341 507.738 270.316 508.475C269.292 509.213 268.061 509.609 266.799 509.608H243.837C242.662 509.61 241.513 509.267 240.531 508.621C239.55 507.976 238.779 507.057 238.315 505.978L228.043 482.14" stroke="#263238" stroke-linecap="round" stroke-linejoin="round"/>
<path d="M208.513 490.381C278.251 490.381 334.785 439.111 334.785 375.865C334.785 312.619 278.251 261.348 208.513 261.348C138.775 261.348 82.2412 312.619 82.2412 375.865C82.2412 439.111 138.775 490.381 208.513 490.381Z" fill="#92E3A9"/>
<path opacity="0.3" d="M295.48 297.618C302.885 312.303 306.743 328.519 306.745 344.965C306.745 408.212 250.211 459.482 180.473 459.482C154.522 459.613 129.085 452.244 107.222 438.26C129.239 467.805 166.512 487.288 208.781 487.288C276.488 487.288 331.353 437.547 331.353 376.18C331.283 345.467 317.578 317.719 295.48 297.618Z" fill="black"/>
<path d="M208.513 490.381C278.251 490.381 334.785 439.111 334.785 375.865C334.785 312.619 278.251 261.348 208.513 261.348C138.775 261.348 82.2412 312.619 82.2412 375.865C82.2412 439.111 138.775 490.381 208.513 490.381Z" stroke="#263238" stroke-linecap="round" stroke-linejoin="round"/>
<path d="M324.162 386.137C321.407 409.204 310.773 430.134 294.757 446.664" stroke="#92E3A9" stroke-width="2" stroke-linecap="round" stroke-linejoin="round"/>
<path d="M322.073 350.615C323.935 358.341 324.876 366.26 324.874 374.207" stroke="#92E3A9" stroke-width="2" stroke-linecap="round" stroke-linejoin="round"/>
<path d="M177.205 268.492C187.609 266.06 198.26 264.838 208.945 264.85C215.786 264.849 222.617 265.348 229.385 266.344" stroke="#263238" stroke-width="4" stroke-linecap="round" stroke-linejoin="round"/>
<path d="M233.284 348.433C233.284 348.433 245.541 340.11 245.985 324.794C246.428 309.478 226.28 287.159 210.089 277.96C193.898 268.761 182.073 270.524 181.641 277.085C181.209 283.645 175.512 291.093 173.329 303.782C171.146 316.471 170.259 335.3 187.337 341.429" fill="#92E3A9"/>
<path d="M233.284 348.433C233.284 348.433 245.541 340.11 245.985 324.794C246.428 309.478 226.28 287.159 210.089 277.96C193.898 268.761 182.073 270.524 181.641 277.085C181.209 283.645 175.512 291.093 173.329 303.782C171.146 316.471 170.259 335.3 187.337 341.429" stroke="#263238" stroke-linecap="round" stroke-linejoin="round"/>
<path opacity="0.3" d="M206.914 343.518L209.424 343.891C220.187 345.444 223.969 338.417 223.654 327.864C223.222 312.98 203.529 281.462 195.205 277.084C186.882 272.707 184.267 278.835 184.267 278.835C184.267 278.835 185.435 279.617 181.337 293.217C179.446 299.497 172.407 321.397 179.376 331.109C185.54 339.689 196.991 342.035 206.914 343.518Z" fill="black"/>
<path opacity="0.3" d="M241.782 328.435H241.619C241.466 328.415 241.319 328.365 241.186 328.288C241.052 328.211 240.936 328.108 240.842 327.985C240.749 327.862 240.681 327.723 240.642 327.573C240.603 327.424 240.594 327.269 240.615 327.116C240.742 326.219 240.816 325.314 240.837 324.408C241.07 316.237 234.405 304.505 223.443 293.684C223.334 293.576 223.247 293.447 223.187 293.305C223.127 293.163 223.095 293.011 223.094 292.857C223.093 292.703 223.122 292.551 223.18 292.408C223.238 292.265 223.324 292.136 223.432 292.026C223.54 291.916 223.668 291.829 223.81 291.769C223.952 291.709 224.104 291.678 224.258 291.677C224.412 291.676 224.565 291.705 224.707 291.763C224.85 291.821 224.98 291.906 225.089 292.014C236.669 303.454 243.428 315.583 243.172 324.466C243.146 325.458 243.069 326.448 242.938 327.432C242.899 327.71 242.76 327.965 242.548 328.149C242.335 328.334 242.064 328.435 241.782 328.435Z" fill="black"/>
<path opacity="0.3" d="M235.502 342.514C235.281 342.514 235.064 342.452 234.877 342.335C234.69 342.218 234.54 342.049 234.445 341.85C234.35 341.651 234.313 341.429 234.339 341.209C234.365 340.99 234.452 340.782 234.591 340.611C236.515 338.254 238.052 335.606 239.144 332.766C239.254 332.477 239.474 332.243 239.757 332.116C240.039 331.989 240.36 331.979 240.65 332.089C240.939 332.199 241.173 332.42 241.3 332.702C241.427 332.984 241.437 333.306 241.327 333.595C240.148 336.668 238.485 339.533 236.401 342.082C236.292 342.216 236.155 342.324 236 342.399C235.844 342.473 235.674 342.513 235.502 342.514V342.514Z" fill="black"/>
<path opacity="0.3" d="M150.493 398.022C153.946 384.186 141.912 369.268 123.615 364.702C105.318 360.137 87.6873 367.653 84.2348 381.49C80.7824 395.327 92.8161 410.244 111.113 414.81C129.41 419.375 147.041 411.859 150.493 398.022Z" fill="black"/>
<path d="M148.85 395.51C152.303 381.673 140.269 366.755 121.972 362.19C103.676 357.625 86.0443 365.141 82.5919 378.977C79.1394 392.814 91.1731 407.732 109.47 412.297C127.767 416.862 145.398 409.346 148.85 395.51Z" fill="#92E3A9" stroke="#263238" stroke-linecap="round" stroke-linejoin="round"/>
<path d="M105.413 383.068C105.623 386.196 104.421 388.834 102.74 388.904C101.059 388.975 99.5063 386.57 99.2378 383.441C98.9693 380.313 100.23 377.663 101.923 377.605C103.615 377.546 105.203 379.928 105.413 383.068Z" stroke="#263238" stroke-linecap="round" stroke-linejoin="round"/>
<path d="M128.55 388.869C128.76 392.009 127.558 394.636 125.877 394.706C124.196 394.776 122.643 392.371 122.375 389.231C122.106 386.091 123.367 383.464 125.059 383.394C126.752 383.324 128.305 385.729 128.55 388.869Z" stroke="#263238" stroke-linecap="round" stroke-linejoin="round"/>
<path d="M166.734 396.983C166.487 399.23 165.962 401.437 165.169 403.555C158.469 421.66 134.211 429.493 110.246 421.695" stroke="#263238" stroke-width="3" stroke-linecap="round" stroke-linejoin="round"/>
<path d="M162.823 395.266H170.259" stroke="#263238" stroke-width="3" stroke-linecap="round" stroke-linejoin="round"/>
<path d="M115.452 346.798C114.635 350.195 112.545 352.635 110.783 352.191C109.02 351.748 108.25 348.689 109.078 345.257C109.907 341.825 111.985 339.42 113.748 339.852C115.511 340.284 116.281 343.389 115.452 346.798Z" fill="#263238" stroke="#263238" stroke-linecap="round" stroke-linejoin="round"/>
<path d="M136.981 351.491C137.802 348.082 137.041 344.974 135.28 344.549C133.518 344.125 131.425 346.545 130.603 349.954C129.781 353.364 130.543 356.472 132.304 356.896C134.065 357.321 136.159 354.901 136.981 351.491Z" fill="#263238" stroke="#263238" stroke-linecap="round" stroke-linejoin="round"/>
<path d="M169.127 475.521L181.968 505.989C182.428 507.079 183.2 508.009 184.186 508.662C185.172 509.316 186.329 509.665 187.512 509.666H210.859C212.032 509.664 213.178 509.321 214.159 508.679C215.139 508.036 215.911 507.122 216.381 506.047L230.389 473.677H229.782" fill="#92E3A9"/>
<path opacity="0.3" d="M196.256 471.634C188.855 471.634 180.24 472.603 173.271 470.992L185.271 505.931C185.557 506.946 186.153 507.846 186.975 508.505C187.798 509.164 188.806 509.55 189.859 509.608H209.097C210.137 509.55 211.133 509.171 211.949 508.523C212.764 507.875 213.358 506.99 213.649 505.989L225.264 470.35L220.595 470.992C205.781 472.603 206.167 471.634 196.256 471.634Z" fill="black"/>
<path d="M169.127 475.521L181.968 505.989C182.428 507.079 183.2 508.009 184.186 508.662C185.172 509.316 186.329 509.665 187.512 509.666H210.859C212.032 509.664 213.178 509.321 214.159 508.679C215.139 508.036 215.911 507.122 216.381 506.047L230.389 473.677H229.782" stroke="#263238" stroke-linecap="round" stroke-linejoin="round"/>
<path d="M401.708 0.925128L337.143 93.9509C337.143 93.9509 331.621 107.119 324.827 116.889C318.033 126.66 298.982 136.431 298.982 136.431C298.982 136.431 297.289 154.688 291.768 161.062C286.246 167.435 274.351 163.618 274.351 163.618C274.351 163.618 269.25 169.14 263.728 171.684C258.207 174.229 241.222 164.891 241.222 164.891C241.222 164.891 256.502 181.455 258.627 186.977C260.751 192.498 264.58 197.168 257.786 202.269C250.992 207.37 243.335 200.144 243.335 200.144C243.335 200.144 246.743 211.187 236.973 213.312C227.202 215.437 216.556 194.191 212.307 186.977C208.057 179.763 195.742 152.563 193.629 151.291C191.516 150.019 188.539 143.225 192.789 136.851C197.038 130.477 227.179 89.7018 230.576 86.7951C233.972 83.8884 298.982 68.4678 298.982 68.4678L323.625 0.504883" fill="white"/>
<path opacity="0.2" d="M330.5 94.9665C330.5 94.9665 323.496 115.979 315.909 120.064C308.321 124.15 265.129 135.24 248.203 132.905C231.276 130.571 221.937 124.15 221.937 124.15C221.937 124.15 212.598 136.407 208.513 140.493C205.668 143.135 202.282 145.127 198.59 146.33C198.59 146.33 218.902 197.354 233.506 213.149C234.64 213.499 235.845 213.555 237.008 213.312C246.778 211.187 243.37 200.144 243.37 200.144C243.37 200.144 251.016 207.359 257.821 202.269C264.627 197.179 260.787 192.498 258.662 186.977C256.537 181.455 241.198 164.891 241.198 164.891C241.198 164.891 258.183 174.229 263.705 171.684C269.226 169.14 274.328 163.606 274.328 163.606C274.328 163.606 286.223 167.435 291.745 161.062C297.266 154.688 298.959 136.431 298.959 136.431C298.959 136.431 318.068 126.66 324.874 116.889C331.679 107.119 337.189 93.9509 337.189 93.9509L363.793 55.627L330.5 94.9665Z" fill="black"/>
<path d="M401.708 0.925128L337.143 93.9509C337.143 93.9509 331.621 107.119 324.827 116.889C318.033 126.66 298.982 136.431 298.982 136.431C298.982 136.431 297.289 154.688 291.768 161.062C286.246 167.435 274.351 163.618 274.351 163.618C274.351 163.618 269.25 169.14 263.728 171.684C258.207 174.229 241.222 164.891 241.222 164.891C241.222 164.891 256.502 181.455 258.627 186.977C260.751 192.498 264.58 197.168 257.786 202.269C250.992 207.37 243.335 200.144 243.335 200.144C243.335 200.144 246.743 211.187 236.973 213.312C227.202 215.437 216.556 194.191 212.307 186.977C208.057 179.763 195.742 152.563 193.629 151.291C191.516 150.019 188.539 143.225 192.789 136.851C197.038 130.477 227.179 89.7018 230.576 86.7951C233.972 83.8884 298.982 68.4678 298.982 68.4678L323.625 0.504883" stroke="#263238" stroke-linecap="round" stroke-linejoin="round"/>
<path d="M180.882 248.986L182.574 255.36L208.91 248.986L233.552 184.42L217.408 178.898L180.882 248.986Z" fill="white" stroke="#263238" stroke-linecap="round" stroke-linejoin="round"/>
<path d="M188.948 163.186L225.474 176.786L207.637 257.484L164.737 244.317L188.948 163.186Z" fill="white" stroke="#263238" stroke-linecap="round" stroke-linejoin="round"/>
<path d="M166.173 239.495L204.24 250.69L220.805 178.898L187.454 168.182L166.173 239.495Z" fill="#92E3A9" stroke="#263238" stroke-linecap="round" stroke-linejoin="round"/>
<path d="M187.302 185.938C185.645 185.499 183.914 185.42 182.224 185.704L172.278 219.032C173.718 220.435 175.489 221.451 177.426 221.985C185.224 224.133 193.769 217.795 196.501 207.837C199.232 197.88 195.088 188.074 187.302 185.938Z" fill="white" stroke="#263238" stroke-linecap="round" stroke-linejoin="round"/>
<path d="M185.89 191.459C185.84 191.437 185.799 191.398 185.773 191.349C185.748 191.301 185.74 191.245 185.75 191.191L186.193 189.463C186.22 189.39 186.23 189.312 186.223 189.235C186.216 189.158 186.191 189.083 186.15 189.017C186.11 188.951 186.055 188.894 185.989 188.852C185.924 188.81 185.85 188.784 185.773 188.774L183.917 188.331C183.844 188.301 183.766 188.289 183.687 188.296C183.609 188.302 183.534 188.327 183.467 188.367C183.4 188.408 183.343 188.464 183.302 188.531C183.26 188.598 183.235 188.673 183.228 188.751L182.866 190.537C182.853 190.591 182.821 190.637 182.776 190.669C182.731 190.702 182.676 190.717 182.621 190.712C181.989 190.647 181.351 190.647 180.718 190.712L177.321 202.117C179.971 204.872 184.104 206.25 183.555 208.561C183.24 209.868 182.049 210.896 179.96 210.429C179.523 210.37 179.103 210.218 178.73 209.983C178.357 209.749 178.039 209.436 177.798 209.067C177.556 208.698 177.397 208.282 177.331 207.846C177.265 207.41 177.294 206.965 177.415 206.541L177.52 206.074C177.578 205.818 177.426 205.608 177.065 205.526L176.353 205.351L174.333 212.098C175.144 212.835 176.092 213.406 177.123 213.779C177.175 213.802 177.218 213.843 177.244 213.894C177.269 213.945 177.276 214.003 177.263 214.059L176.843 215.542C176.811 215.614 176.796 215.693 176.802 215.773C176.807 215.852 176.831 215.928 176.872 215.996C176.914 216.064 176.971 216.121 177.039 216.161C177.107 216.202 177.184 216.226 177.263 216.23L179.189 216.697C179.257 216.733 179.332 216.753 179.409 216.756C179.485 216.758 179.561 216.743 179.631 216.711C179.701 216.68 179.763 216.633 179.812 216.574C179.86 216.515 179.895 216.445 179.913 216.37L180.228 214.9C180.245 214.845 180.28 214.798 180.326 214.764C180.372 214.731 180.428 214.713 180.485 214.713C184.594 215.145 187.384 213.125 188.248 209.53C188.925 206.658 187.956 204.218 184.956 201.919C182.213 199.841 179.318 198.814 179.82 196.689C180.17 195.218 181.512 194.541 183.322 194.973C183.769 195.045 184.196 195.213 184.573 195.466C184.949 195.719 185.267 196.05 185.503 196.437C185.739 196.825 185.889 197.258 185.942 197.709C185.994 198.159 185.949 198.616 185.808 199.047L185.726 199.374C185.726 199.572 185.843 199.747 186.205 199.841L189.625 200.658C189.698 200.685 189.776 200.695 189.853 200.688C189.931 200.68 190.005 200.655 190.072 200.615C190.138 200.574 190.194 200.52 190.236 200.454C190.278 200.389 190.305 200.315 190.314 200.238L190.571 199.152C191.353 195.732 189.707 192.825 185.89 191.459Z" fill="#263238"/>
<path d="M219.101 120.706C219.101 120.706 224.202 128.352 225.054 135.158C225.778 140.959 224.421 146.828 221.225 151.723C218.68 155.54 216.136 158.937 214.011 164.89C211.886 170.844 211.466 179.33 208.489 183.568C205.513 187.805 203.82 192.054 208.058 195.883C212.295 199.712 223.35 199.28 229.303 188.237C235.257 177.194 239.074 165.299 242.891 161.05C246.708 156.801 259.036 147.042 259.036 147.042C259.036 147.042 292.585 142.372 298.959 136.43C305.332 130.489 310.854 114.344 310.854 114.344" fill="white"/>
<path opacity="0.2" d="M308.321 120.064C308.321 120.064 290.227 131.738 276.219 135.24C262.211 138.742 253.456 138.742 248.203 145.746C242.949 152.75 237.696 174.93 230.692 179.015C223.688 183.101 222.521 168.509 212.598 171.428L212.272 171.544C211.303 176.097 210.451 180.766 208.489 183.58C205.513 187.829 203.82 192.066 208.058 195.895C212.295 199.724 223.35 199.292 229.303 188.249C235.257 177.206 239.074 165.311 242.891 161.062C246.708 156.812 259.036 147.053 259.036 147.053C259.036 147.053 292.585 142.384 298.959 136.442C302.811 132.847 306.348 125.539 308.543 120.31L308.321 120.064Z" fill="black"/>
<path d="M219.101 120.706C219.101 120.706 224.202 128.352 225.054 135.158C225.778 140.959 224.421 146.828 221.225 151.723C218.68 155.54 216.136 158.937 214.011 164.89C211.886 170.844 211.466 179.33 208.489 183.568C205.513 187.805 203.82 192.054 208.058 195.883C212.295 199.712 223.35 199.28 229.303 188.237C235.257 177.194 239.074 165.299 242.891 161.05C246.708 156.801 259.036 147.042 259.036 147.042C259.036 147.042 292.585 142.372 298.959 136.43C305.332 130.489 310.854 114.344 310.854 114.344" stroke="#263238" stroke-linecap="round" stroke-linejoin="round"/>
<path d="M205.933 141.952C205.933 141.952 216.988 147.894 225.054 141.1" stroke="#263238" stroke-linecap="round" stroke-linejoin="round"/>
<path d="M243.311 200.144L233.552 181.455" stroke="#263238" stroke-linecap="round" stroke-linejoin="round"/>
<path d="M274.328 163.618C274.328 163.618 281.974 157.244 281.542 143.225" stroke="#263238" stroke-linecap="round" stroke-linejoin="round"/>
<path d="M42.166 509.608H504.435" stroke="#263238" stroke-linecap="round" stroke-linejoin="round"/>
<path d="M1.30904 509.608H22.3213" stroke="#263238" stroke-linecap="round" stroke-linejoin="round"/>
</svg>
