<svg width="35" height="36" viewBox="0 0 35 36" fill="none" xmlns="http://www.w3.org/2000/svg">
<circle cx="17.6646" cy="18.015" r="17.1592" fill="#3993CA" fill-opacity="0.2"/>
<path d="M28.0358 10.3051C28.0812 10.1988 28.0924 10.0823 28.0678 9.97007C28.0432 9.85785 27.984 9.75485 27.8975 9.67385C27.811 9.59285 27.701 9.5374 27.5811 9.51438C27.4613 9.49136 27.3369 9.50178 27.2233 9.54435L9.04022 16.3552H9.03897L8.47399 16.5659C8.36698 16.6059 8.27385 16.6728 8.20489 16.7592C8.13593 16.8456 8.09383 16.9482 8.08322 17.0556C8.07262 17.163 8.09393 17.2711 8.1448 17.3679C8.19567 17.4647 8.27412 17.5465 8.37149 17.6041L8.88397 17.9084L8.88522 17.9108L15.1287 21.6305L19.1011 27.4769L19.1036 27.4793L19.4286 27.9591C19.4904 28.05 19.5777 28.1231 19.681 28.1704C19.7843 28.2177 19.8995 28.2375 20.014 28.2274C20.1285 28.2174 20.2378 28.178 20.3299 28.1135C20.422 28.049 20.4934 27.962 20.5361 27.862L28.0358 10.3051V10.3051ZM25.7446 12.5173L16.3775 21.2887L16.1087 20.8931C16.0595 20.8205 15.9937 20.759 15.9162 20.7128L15.4937 20.4612L24.8609 11.6898L26.3333 11.1385L25.7459 12.5173H25.7446Z" fill="#058868"/>
</svg>
