<svg width="35" height="35" viewBox="0 0 35 35" fill="none" xmlns="http://www.w3.org/2000/svg">
<rect width="35" height="35" fill="#F5F5F5"/>
<circle cx="17.2491" cy="17.6646" r="17.1592" fill="#3993CA" fill-opacity="0.2"/>
<circle cx="17.2489" cy="17.6649" r="7.62633" fill="#989898"/>
<circle cx="17.2489" cy="17.6649" r="7.62633" fill="white"/>
<path d="M23.729 21.686C23.0286 22.8147 22.0455 23.741 20.877 24.3729C19.7085 25.0049 18.3953 25.3207 17.0672 25.2891C15.7392 25.2574 14.4424 24.8794 13.3054 24.1925C12.1684 23.5056 11.2305 22.5336 10.5846 21.3728C9.93874 20.2119 9.6073 18.9025 9.6231 17.5742C9.6389 16.2459 10.0014 14.9447 10.6747 13.7996C11.348 12.6544 12.3087 11.705 13.4618 11.0453C14.6148 10.3857 15.9202 10.0386 17.2486 10.0386L17.2489 17.6649L23.729 21.686Z" fill="#989898"/>
<path d="M23.729 21.686C23.0286 22.8147 22.0455 23.741 20.877 24.3729C19.7085 25.0049 18.3953 25.3207 17.0672 25.2891C15.7392 25.2574 14.4424 24.8794 13.3054 24.1925C12.1684 23.5056 11.2305 22.5336 10.5846 21.3728C9.93874 20.2119 9.6073 18.9025 9.6231 17.5742C9.6389 16.2459 10.0014 14.9447 10.6747 13.7996C11.348 12.6544 12.3087 11.705 13.4618 11.0453C14.6148 10.3857 15.9202 10.0386 17.2486 10.0386L17.2489 17.6649L23.729 21.686Z" fill="#058868"/>
</svg>
