<svg width="104" height="25" viewBox="0 0 104 25" fill="none" xmlns="http://www.w3.org/2000/svg">
<rect width="104" height="25" fill="#F5F5F5"/>
<path d="M39.5729 4.67107C40.9762 4.67107 42.2117 4.89223 43.2793 5.33456C44.3623 5.76164 45.3003 6.39462 46.0935 7.23352L44.1945 9.77309C43.5386 9.08672 42.8294 8.57575 42.0668 8.24019C41.3194 7.88938 40.4652 7.71398 39.5043 7.71398C38.94 7.71398 38.4824 7.77499 38.1316 7.89701C37.7808 8.01903 37.5291 8.18681 37.3766 8.40035C37.224 8.61388 37.1478 8.85793 37.1478 9.13247C37.1478 9.45278 37.2927 9.72733 37.5825 9.95612C37.8875 10.1697 38.3756 10.3527 39.0467 10.5052L41.5863 11.0772C43.0963 11.428 44.2021 11.939 44.9038 12.6101C45.6054 13.2812 45.9562 14.1735 45.9562 15.2869C45.9562 16.3546 45.6816 17.2621 45.1325 18.0095C44.5835 18.7417 43.8284 19.2984 42.8675 19.6797C41.9066 20.0458 40.8084 20.2288 39.5729 20.2288C38.5663 20.2288 37.6054 20.122 36.6902 19.9085C35.775 19.6797 34.9514 19.3594 34.2193 18.9476C33.4871 18.5357 32.8694 18.0629 32.3661 17.5291L34.265 14.898C34.6463 15.3403 35.1115 15.7369 35.6606 16.0877C36.225 16.4232 36.8351 16.6902 37.491 16.8885C38.1621 17.0867 38.8408 17.1859 39.5272 17.1859C40.061 17.1859 40.5034 17.1325 40.8542 17.0257C41.2202 16.919 41.4872 16.7588 41.6549 16.5453C41.8227 16.3317 41.9066 16.0801 41.9066 15.7903C41.9066 15.47 41.7922 15.203 41.5634 14.9895C41.3346 14.7607 40.8999 14.5701 40.2593 14.4175L37.4681 13.7998C36.6139 13.6015 35.8513 13.3422 35.1802 13.0219C34.5243 12.6863 34.0057 12.244 33.6244 11.6949C33.2431 11.1306 33.0524 10.429 33.0524 9.59005C33.0524 8.64439 33.3117 7.80549 33.8303 7.07337C34.3489 6.32598 35.0963 5.73876 36.0725 5.31168C37.0486 4.88461 38.2155 4.67107 39.5729 4.67107ZM53.4193 20.2288C52.1533 20.2288 51.0551 19.9924 50.1247 19.5195C49.2095 19.0467 48.5003 18.368 47.9969 17.4833C47.4936 16.5987 47.2419 15.531 47.2419 14.2803C47.2419 13.0295 47.4936 11.9618 47.9969 11.0772C48.5003 10.1925 49.2019 9.51379 50.1018 9.04096C51.017 8.56813 52.0618 8.33171 53.2362 8.33171C54.4412 8.33171 55.4631 8.56813 56.302 9.04096C57.1562 9.49854 57.8044 10.1392 58.2467 10.9628C58.6891 11.7712 58.9102 12.7016 58.9102 13.754C58.9102 14.0286 58.9026 14.3031 58.8874 14.5777C58.8721 14.8522 58.8492 15.081 58.8187 15.264H49.7586V13.1821H57.1028L55.2496 13.8913C55.2496 12.9761 55.0818 12.2745 54.7463 11.7864C54.4259 11.2984 53.9226 11.0543 53.2362 11.0543C52.7482 11.0543 52.3287 11.1687 51.9779 11.3975C51.6423 11.6263 51.383 11.9847 51.2 12.4728C51.0322 12.9609 50.9483 13.5863 50.9483 14.3489C50.9483 15.0963 51.0475 15.7064 51.2458 16.1792C51.4441 16.6368 51.7262 16.9723 52.0923 17.1859C52.4584 17.3842 52.9007 17.4833 53.4193 17.4833C53.9989 17.4833 54.4565 17.3689 54.792 17.1401C55.1428 16.9113 55.4021 16.591 55.5699 16.1792L58.6814 17.2088C58.4679 17.8646 58.0942 18.4213 57.5604 18.8789C57.0418 19.3213 56.4164 19.6568 55.6843 19.8856C54.9674 20.1144 54.2124 20.2288 53.4193 20.2288ZM60.781 20V8.5605H64.2586L64.4645 12.4957L64.0298 12.061C64.1824 11.2373 64.4493 10.551 64.8306 10.0019C65.2272 9.45278 65.7152 9.04096 66.2948 8.76641C66.8897 8.47661 67.5532 8.33171 68.2853 8.33171C69.0785 8.33171 69.7648 8.48424 70.3444 8.78929C70.9393 9.09434 71.4045 9.5443 71.74 10.1392C72.0756 10.734 72.2434 11.4814 72.2434 12.3813V20H68.354V13.4108C68.354 12.6177 68.2014 12.0686 67.8964 11.7636C67.5913 11.4585 67.2024 11.306 66.7295 11.306C66.3635 11.306 66.0203 11.3975 65.7 11.5805C65.3797 11.7483 65.128 12.0229 64.945 12.4042C64.762 12.7855 64.6704 13.2965 64.6704 13.9371V20H60.781ZM78.8734 20.2288C77.9277 20.2288 77.0964 20 76.3795 19.5424C75.6779 19.0696 75.1288 18.3908 74.7323 17.5062C74.3509 16.6215 74.1603 15.5615 74.1603 14.326C74.1603 13.0448 74.3586 11.9618 74.7551 11.0772C75.167 10.1925 75.7313 9.51379 76.4482 9.04096C77.1803 8.56813 78.0192 8.33171 78.9649 8.33171C80.0021 8.33171 80.8333 8.65202 81.4587 9.29263C82.0993 9.91799 82.5111 10.7188 82.6941 11.6949L82.3281 12.1754V3.71015H86.2175V20H82.7399L82.4882 16.1106L82.9458 16.4538C82.8543 17.2164 82.6179 17.8799 82.2366 18.4442C81.8705 19.0086 81.3977 19.4509 80.8181 19.7712C80.2537 20.0763 79.6055 20.2288 78.8734 20.2288ZM80.2232 17.3689C80.6655 17.3689 81.0392 17.2545 81.3443 17.0257C81.6646 16.7817 81.9086 16.4232 82.0764 15.9504C82.2442 15.4776 82.3281 14.898 82.3281 14.2116C82.3281 13.571 82.2442 13.0295 82.0764 12.5872C81.9239 12.1296 81.6875 11.7864 81.3672 11.5576C81.0621 11.3136 80.6884 11.1916 80.2461 11.1916C79.575 11.1916 79.0411 11.4433 78.6446 11.9466C78.2632 12.4347 78.0726 13.2126 78.0726 14.2803C78.0726 15.3479 78.2632 16.1334 78.6446 16.6368C79.0259 17.1249 79.5521 17.3689 80.2232 17.3689ZM100.211 8.5605L96.0468 20C95.6197 21.205 95.1545 22.1659 94.6512 22.8828C94.1478 23.5996 93.553 24.1182 92.8666 24.4385C92.1802 24.7588 91.3566 24.919 90.3957 24.919C89.7551 24.919 89.1678 24.8503 88.634 24.7131C88.1001 24.5758 87.6349 24.3851 87.2384 24.1411L88.0163 21.51C88.2908 21.7083 88.5806 21.8456 88.8857 21.9218C89.1907 22.0134 89.5797 22.0591 90.0525 22.0591C90.4948 22.0591 90.8532 21.9828 91.1278 21.8303C91.4176 21.6778 91.6464 21.388 91.8142 20.9609L92.1116 20.2517L90.7846 17.1401L87.3528 8.5605H91.6311L93.3928 15.081L93.9419 17.5062L94.5825 14.9895L96.3442 8.5605H100.211ZM101.647 16.0648C102.364 16.0648 102.921 16.2478 103.317 16.6139C103.729 16.98 103.935 17.4909 103.935 18.1468C103.935 18.7874 103.729 19.2908 103.317 19.6568C102.921 20.0229 102.364 20.2059 101.647 20.2059C100.946 20.2059 100.389 20.0229 99.977 19.6568C99.5652 19.2908 99.3593 18.7874 99.3593 18.1468C99.3593 17.4909 99.5652 16.98 99.977 16.6139C100.389 16.2478 100.946 16.0648 101.647 16.0648Z" fill="#058868"/>
<path d="M12.4155 0.120381C12.2924 0.0418813 12.1479 0 12 0C11.8521 0 11.7076 0.0418813 11.5845 0.120381L0.3345 7.308C0.20062 7.39355 0.0990016 7.5181 0.0446537 7.66325C-0.00969416 7.8084 -0.0138893 7.96645 0.032688 8.11406C0.0792652 8.26167 0.174145 8.39101 0.303313 8.48297C0.432481 8.57493 0.589087 8.62465 0.75 8.62477H3.5625V18.6874H2.25C2.05109 18.6874 1.86032 18.7632 1.71967 18.898C1.57902 19.0327 1.5 19.2156 1.5 19.4062C1.5 19.5968 1.57902 19.7796 1.71967 19.9144C1.86032 20.0492 2.05109 20.125 2.25 20.125H21.75C21.9489 20.125 22.1397 20.0492 22.2803 19.9144C22.421 19.7796 22.5 19.5968 22.5 19.4062C22.5 19.2156 22.421 19.0327 22.2803 18.898C22.1397 18.7632 21.9489 18.6874 21.75 18.6874H20.4375V8.62477H23.25C23.4109 8.62465 23.5675 8.57493 23.6967 8.48297C23.8259 8.39101 23.9207 8.26167 23.9673 8.11406C24.0139 7.96645 24.0097 7.8084 23.9553 7.66325C23.901 7.5181 23.7994 7.39355 23.6655 7.308L12.4155 0.120381ZM18.5625 8.62477V18.6874H16.6875V8.62477H18.5625ZM14.8125 8.62477V18.6874H12.9375V8.62477H14.8125ZM11.0625 8.62477V18.6874H9.1875V8.62477H11.0625ZM7.3125 8.62477V18.6874H5.4375V8.62477H7.3125ZM12 5.74972C11.6022 5.74972 11.2206 5.59827 10.9393 5.32868C10.658 5.05909 10.5 4.69345 10.5 4.3122C10.5 3.93094 10.658 3.5653 10.9393 3.29572C11.2206 3.02613 11.6022 2.87468 12 2.87468C12.3978 2.87468 12.7794 3.02613 13.0607 3.29572C13.342 3.5653 13.5 3.93094 13.5 4.3122C13.5 4.69345 13.342 5.05909 13.0607 5.32868C12.7794 5.59827 12.3978 5.74972 12 5.74972ZM0.75 21.5625C0.551088 21.5625 0.360322 21.6382 0.21967 21.773C0.0790176 21.9078 0 22.0906 0 22.2812C0 22.4719 0.0790176 22.6547 0.21967 22.7895C0.360322 22.9243 0.551088 23 0.75 23H23.25C23.4489 23 23.6397 22.9243 23.7803 22.7895C23.921 22.6547 24 22.4719 24 22.2812C24 22.0906 23.921 21.9078 23.7803 21.773C23.6397 21.6382 23.4489 21.5625 23.25 21.5625H0.75Z" fill="#058868"/>
</svg>
