<svg width="544" height="470" viewBox="0 0 544 470" fill="none" xmlns="http://www.w3.org/2000/svg">
<rect width="544" height="470" fill="#F5F5F5"/>
<g clip-path="url(#clip0_0_1)">
<rect x="0.00012207" y="-0.000488281" width="426.121" height="667.304" rx="22.879" fill="url(#paint0_linear_0_1)"/>
<path d="M-0.953301 537.656L118.685 667.781H339.372L109.629 402.289L416.588 3.81293H201.145L-7.62634 259.295L-0.953301 537.656Z" fill="#058868" fill-opacity="0.5"/>
<path d="M123.061 362.086C127.362 362.086 131.183 362.681 134.523 363.871C137.863 365.015 140.792 366.777 143.308 369.156L137.2 378.147C135.141 376.409 132.944 375.059 130.611 374.098C128.323 373.091 125.783 372.588 122.992 372.588C121.573 372.588 120.429 372.725 119.56 373C118.691 373.274 118.05 373.663 117.638 374.167C117.272 374.624 117.089 375.15 117.089 375.745C117.089 376.477 117.524 377.072 118.393 377.53C119.308 377.987 120.567 378.399 122.168 378.765L129.032 380.344C133.608 381.396 137.017 382.952 139.259 385.011C141.501 387.025 142.622 389.793 142.622 393.316C142.622 396.748 141.753 399.608 140.014 401.896C138.321 404.184 135.987 405.9 133.013 407.044C130.039 408.188 126.675 408.76 122.923 408.76C119.949 408.76 117.043 408.462 114.206 407.867C111.415 407.272 108.853 406.426 106.519 405.328C104.185 404.184 102.172 402.834 100.479 401.278L106.519 392.012C107.754 393.202 109.264 394.277 111.049 395.238C112.834 396.153 114.733 396.885 116.746 397.434C118.759 397.984 120.704 398.258 122.58 398.258C123.907 398.258 124.982 398.144 125.806 397.915C126.675 397.64 127.293 397.274 127.659 396.817C128.025 396.359 128.208 395.81 128.208 395.169C128.208 394.392 127.911 393.774 127.316 393.316C126.721 392.813 125.6 392.378 123.953 392.012L116.403 390.296C113.932 389.747 111.644 388.992 109.539 388.031C107.434 387.07 105.741 385.743 104.46 384.05C103.224 382.311 102.607 380.046 102.607 377.255C102.607 374.281 103.407 371.65 105.009 369.362C106.611 367.074 108.944 365.289 112.01 364.008C115.076 362.727 118.759 362.086 123.061 362.086ZM165.136 408.76C161.201 408.76 157.792 408.073 154.909 406.7C152.072 405.282 149.876 403.246 148.32 400.592C146.81 397.938 146.055 394.712 146.055 390.914C146.055 387.116 146.833 383.89 148.389 381.236C149.944 378.582 152.118 376.569 154.909 375.196C157.7 373.778 160.926 373.068 164.587 373.068C168.339 373.068 171.519 373.778 174.128 375.196C176.782 376.569 178.795 378.491 180.168 380.962C181.586 383.433 182.295 386.315 182.295 389.61C182.295 390.388 182.25 391.166 182.158 391.944C182.112 392.721 182.044 393.385 181.952 393.934H154.978V387.894H175.912L169.323 390.434C169.323 387.825 168.957 385.858 168.225 384.531C167.538 383.158 166.326 382.472 164.587 382.472C163.397 382.472 162.391 382.746 161.567 383.295C160.789 383.844 160.194 384.76 159.782 386.041C159.416 387.322 159.233 389.015 159.233 391.12C159.233 393.225 159.462 394.895 159.92 396.13C160.423 397.32 161.109 398.144 161.979 398.601C162.848 399.059 163.946 399.288 165.273 399.288C166.738 399.288 167.882 398.99 168.705 398.395C169.529 397.801 170.124 396.977 170.49 395.924L181.609 399.219C181.06 401.324 179.939 403.086 178.246 404.504C176.598 405.923 174.631 406.998 172.343 407.73C170.055 408.416 167.653 408.76 165.136 408.76ZM187.075 408.073V373.755H199.567L200.184 387.002L198.743 385.492C199.109 382.838 199.864 380.596 201.008 378.765C202.152 376.889 203.616 375.471 205.401 374.51C207.231 373.549 209.336 373.068 211.715 373.068C214.049 373.068 216.04 373.526 217.687 374.441C219.38 375.31 220.684 376.637 221.599 378.422C222.514 380.161 222.972 382.311 222.972 384.874V408.073H209.107V388.443C209.107 386.521 208.787 385.217 208.146 384.531C207.552 383.799 206.682 383.433 205.538 383.433C204.669 383.433 203.868 383.661 203.136 384.119C202.449 384.531 201.9 385.217 201.489 386.178C201.123 387.139 200.939 388.397 200.939 389.953V408.073H187.075ZM241.687 408.76C238.896 408.76 236.471 408.073 234.412 406.7C232.399 405.282 230.843 403.246 229.745 400.592C228.692 397.938 228.166 394.758 228.166 391.051C228.166 387.253 228.715 384.027 229.813 381.373C230.911 378.674 232.49 376.615 234.549 375.196C236.654 373.778 239.102 373.068 241.893 373.068C245.142 373.068 247.682 374.098 249.512 376.157C251.342 378.17 252.509 380.756 253.012 383.913L251.777 385.629V359.615H265.642V408.073H253.15L252.326 395.238L253.905 396.817C253.63 399.15 252.944 401.232 251.846 403.063C250.793 404.847 249.398 406.243 247.659 407.25C245.966 408.256 243.975 408.76 241.687 408.76ZM247.041 398.876C248.048 398.876 248.894 398.578 249.581 397.984C250.267 397.389 250.793 396.496 251.159 395.307C251.571 394.117 251.777 392.63 251.777 390.845C251.777 389.152 251.594 387.734 251.228 386.59C250.908 385.4 250.381 384.508 249.649 383.913C248.963 383.318 248.094 383.021 247.041 383.021C245.531 383.021 244.318 383.616 243.403 384.805C242.534 385.949 242.099 387.985 242.099 390.914C242.099 393.842 242.534 395.902 243.403 397.091C244.273 398.281 245.485 398.876 247.041 398.876ZM308.849 373.755L297.661 406.014C296.289 410.132 294.733 413.404 292.994 415.829C291.301 418.3 289.288 420.085 286.954 421.183C284.62 422.281 281.783 422.83 278.443 422.83C276.384 422.83 274.508 422.624 272.815 422.212C271.122 421.801 269.658 421.252 268.422 420.565L271.03 411.574C271.808 412.031 272.632 412.374 273.501 412.603C274.416 412.832 275.629 412.946 277.139 412.946C278.557 412.946 279.656 412.763 280.434 412.397C281.211 412.031 281.783 411.368 282.149 410.407L282.63 409.103L278.512 399.356L268.491 373.755H283.66L287.778 392.355L289.219 399.974L290.935 392.149L295.191 373.755H308.849ZM313.808 395.032C316.279 395.032 318.178 395.627 319.505 396.817C320.832 398.006 321.496 399.677 321.496 401.827C321.496 403.978 320.832 405.648 319.505 406.838C318.178 408.027 316.279 408.622 313.808 408.622C311.429 408.622 309.553 408.027 308.18 406.838C306.807 405.648 306.121 403.978 306.121 401.827C306.121 399.677 306.807 398.006 308.18 396.817C309.553 395.627 311.429 395.032 313.808 395.032Z" fill="#FFFEFD"/>
<path d="M81.0298 -1.69044L-19.0658 160.152L1.73326 -11.44L81.0298 -1.69044Z" fill="#058868"/>
<path d="M213.538 51.4772L224.977 40.0377L235.94 51.4772H213.538Z" fill="#0D1321"/>
<path d="M54.2976 115.116C56.0708 115.116 57.4492 115.608 58.433 116.592C59.4282 117.564 59.9259 118.96 59.9259 120.779C59.9259 122.598 59.4282 123.999 58.433 124.983C57.4492 125.955 56.0708 126.441 54.2976 126.441H50.2995V115.116H54.2976ZM54.2976 124.88C55.4988 124.88 56.4139 124.525 57.0431 123.816C57.6837 123.095 58.004 122.083 58.004 120.779C58.004 119.475 57.6837 118.468 57.0431 117.759C56.4139 117.038 55.4988 116.678 54.2976 116.678H52.1356V124.88H54.2976ZM65.8621 126.613C65.0041 126.613 64.2491 126.436 63.5971 126.081C62.945 125.726 62.436 125.217 62.0699 124.554C61.7153 123.879 61.538 123.078 61.538 122.152C61.538 121.225 61.7153 120.43 62.0699 119.766C62.436 119.091 62.9393 118.577 63.5799 118.222C64.2205 117.867 64.9469 117.69 65.7591 117.69C66.5942 117.69 67.3035 117.862 67.8869 118.205C68.4703 118.548 68.9164 119.017 69.2253 119.612C69.5342 120.207 69.6886 120.882 69.6886 121.637C69.6886 121.843 69.6829 122.037 69.6714 122.22C69.66 122.403 69.6428 122.563 69.62 122.701H62.7219V121.294H68.8135L67.904 121.568C67.904 120.79 67.7096 120.195 67.3206 119.784C66.9317 119.36 66.3997 119.149 65.7248 119.149C65.2329 119.149 64.8039 119.263 64.4379 119.492C64.0718 119.721 63.7915 120.064 63.5971 120.521C63.4026 120.968 63.3054 121.517 63.3054 122.169C63.3054 122.809 63.4083 123.353 63.6142 123.799C63.8201 124.245 64.1118 124.582 64.4893 124.811C64.8668 125.04 65.313 125.154 65.8278 125.154C66.3997 125.154 66.863 125.046 67.2177 124.828C67.5723 124.611 67.8526 124.308 68.0585 123.919L69.517 124.605C69.3111 125.017 69.0308 125.377 68.6762 125.686C68.333 125.984 67.9212 126.213 67.4407 126.373C66.9603 126.533 66.4341 126.613 65.8621 126.613ZM76.3009 126.613C75.7975 126.613 75.3342 126.516 74.911 126.321C74.4991 126.127 74.1502 125.858 73.8643 125.515C73.5783 125.16 73.3666 124.765 73.2294 124.331L73.4524 124.039L73.3152 126.441H71.7022V114.001H73.5382V120.024L73.3323 119.732C73.5497 119.137 73.9215 118.651 74.4477 118.274C74.9739 117.885 75.6088 117.69 76.3523 117.69C77.0387 117.69 77.6679 117.867 78.2399 118.222C78.8233 118.577 79.2809 119.086 79.6126 119.749C79.9443 120.413 80.1102 121.219 80.1102 122.169C80.1102 123.095 79.9386 123.89 79.5954 124.554C79.2637 125.217 78.8061 125.726 78.2227 126.081C77.6507 126.436 77.0101 126.613 76.3009 126.613ZM75.9062 125.137C76.6498 125.137 77.2275 124.874 77.6393 124.348C78.0626 123.81 78.2742 123.078 78.2742 122.152C78.2742 121.225 78.0683 120.499 77.6564 119.972C77.2446 119.446 76.6669 119.183 75.9234 119.183C75.4429 119.183 75.0254 119.309 74.6707 119.56C74.3161 119.801 74.0358 120.144 73.8299 120.59C73.6355 121.036 73.5382 121.568 73.5382 122.186C73.5382 122.792 73.6355 123.318 73.8299 123.764C74.0244 124.199 74.299 124.537 74.6536 124.777C75.0196 125.017 75.4372 125.137 75.9062 125.137ZM83.0818 116.42C82.6814 116.42 82.3725 116.323 82.1552 116.129C81.9493 115.923 81.8463 115.637 81.8463 115.271C81.8463 114.905 81.9493 114.624 82.1552 114.43C82.3725 114.235 82.6814 114.138 83.0818 114.138C83.4707 114.138 83.7681 114.235 83.9741 114.43C84.1914 114.624 84.3001 114.905 84.3001 115.271C84.3001 115.637 84.1914 115.923 83.9741 116.129C83.7681 116.323 83.4707 116.42 83.0818 116.42ZM83.9912 117.862V126.441H82.1552V117.862H83.9912ZM89.0641 115.339V123.867C89.0641 124.291 89.1728 124.6 89.3901 124.794C89.6189 124.989 89.9221 125.086 90.2996 125.086C90.6084 125.086 90.8773 125.04 91.1061 124.948C91.3349 124.846 91.5465 124.708 91.741 124.537L92.1528 125.875C91.8897 126.104 91.5636 126.287 91.1747 126.424C90.7972 126.55 90.3739 126.613 89.9049 126.613C89.413 126.613 88.9612 126.533 88.5493 126.373C88.1375 126.213 87.8172 125.955 87.5884 125.601C87.3596 125.234 87.2395 124.76 87.2281 124.176V115.854L89.0641 115.339ZM92.0155 117.862V119.303H85.5808V117.862H92.0155Z" fill="white"/>
<path d="M190.604 161.613V87.6567C190.604 80.261 193.855 74.21 197.827 74.21H251.999C255.971 74.21 259.222 80.261 259.222 87.6567V161.613C259.222 169.009 255.971 175.06 251.999 175.06H197.827C193.855 175.06 190.604 169.009 190.604 161.613Z" fill="#EDC482"/>
<path d="M259.222 114.804V108.223H237.553C235.567 108.223 233.942 105.262 233.942 101.643C233.942 98.0233 235.567 95.062 237.553 95.062H239.359V88.4814H237.553C233.58 88.4814 230.33 94.4039 230.33 101.643C230.33 108.881 233.58 114.804 237.553 114.804H242.97V134.546H237.553C232.497 134.546 228.524 141.785 228.524 150.997C228.524 160.21 232.497 167.449 237.553 167.449H241.164V160.868H237.553C234.483 160.868 232.136 156.591 232.136 150.997C232.136 145.404 234.483 141.126 237.553 141.126H259.222V134.546H246.582V114.804H259.222ZM212.273 134.546H206.856V114.804H212.273C216.245 114.804 219.496 108.881 219.496 101.643C219.496 94.4039 216.245 88.4814 212.273 88.4814H206.856V95.062H212.273C214.259 95.062 215.884 98.0233 215.884 101.643C215.884 105.262 214.259 108.223 212.273 108.223H190.604V114.804H203.244V134.546H190.604V141.126H212.273C215.343 141.126 217.69 145.404 217.69 150.997C217.69 156.591 215.343 160.868 212.273 160.868H208.661V167.449H212.273C217.329 167.449 221.302 160.21 221.302 150.997C221.302 141.785 217.329 134.546 212.273 134.546Z" fill="#D5BF83"/>
<path d="M322.533 148.42C321.623 148.052 320.973 147.229 320.822 146.255C320.713 145.691 320.822 145.302 321.688 143.742C324.938 137.894 326.606 131.288 326.52 124.596C326.606 118.098 325.025 111.752 321.905 106.055C321.45 105.102 321.038 104.193 320.692 103.218C320.822 102.395 321.233 101.637 321.905 101.182C322.88 100.662 324.071 100.771 324.96 101.377C325.566 102.157 326.086 102.936 326.52 103.846C328.851 108.31 330.439 113.123 331.221 118.098C331.72 122.018 331.785 126.003 331.416 129.945C330.745 135.014 329.25 139.908 326.953 144.478C325.566 147.251 324.786 148.42 323.963 148.42H322.533V148.42ZM313.087 143.634C311.852 143.287 311.072 142.031 311.332 140.775C311.332 140.515 312.003 139.324 312.61 138.111C315.167 133.194 316.272 127.649 315.773 122.126C315.47 118.163 314.322 114.307 312.437 110.82C311.072 108.091 310.985 107.658 311.787 106.489C312.74 105.427 314.322 105.276 315.492 106.185C317.052 108.481 318.287 110.994 319.197 113.636C321.97 121.845 321.536 130.79 317.983 138.674C316.163 142.767 314.885 144.089 313.087 143.526V143.634V143.634ZM303.337 138.804C302.951 138.631 302.609 138.374 302.335 138.051C302.062 137.729 301.863 137.35 301.755 136.941C301.755 136.508 301.755 135.945 302.73 134.212C304.319 131.333 305.152 128.1 305.152 124.812C305.152 121.525 304.319 118.291 302.73 115.412C301.322 112.683 301.322 112.12 302.47 111.08C302.882 110.604 303.489 110.366 304.139 110.452C305.525 110.452 306.305 111.124 307.475 113.571C309.317 116.952 310.271 120.745 310.248 124.596C310.335 128.516 309.382 132.414 307.497 135.858C306.327 138.132 305.742 138.674 304.572 138.869C304.16 138.912 303.727 138.869 303.337 138.674V138.804V138.804ZM294.215 134.19C293.5 133.844 292.937 133.259 292.655 132.501C292.439 131.743 292.655 131.093 293.522 129.707C294.605 128.234 295.125 126.415 295.017 124.596C295.169 122.754 294.67 120.935 293.609 119.419C293.249 118.873 292.93 118.301 292.655 117.708C292.417 116.343 293.327 115.044 294.822 114.784C295.992 114.567 296.815 115.066 297.899 116.712C299.436 119.05 300.255 121.787 300.255 124.585C300.255 127.383 299.436 130.119 297.899 132.458C296.794 134.125 295.537 134.624 294.237 134.19H294.215V134.19Z" fill="#EAFFFF"/>
</g>
<g filter="url(#filter0_d_0_1)">
<circle cx="454.183" cy="293.136" r="51" fill="white"/>
</g>
<path d="M454.321 256.905C432.526 256.905 414.693 273.604 414.693 294.012C414.693 314.421 432.526 331.12 454.321 331.12C476.117 331.12 493.95 314.421 493.95 294.012C493.95 273.604 476.117 256.905 454.321 256.905ZM454.321 265.151C461.146 265.151 467.531 267.419 472.815 270.924L429.664 311.329C425.921 306.382 423.499 300.403 423.499 294.012C423.499 278.139 437.369 265.151 454.321 265.151ZM454.321 322.874C447.496 322.874 441.112 320.606 435.828 317.101L478.979 276.696C482.722 281.643 485.144 287.622 485.144 294.012C485.144 309.886 471.274 322.874 454.321 322.874Z" fill="#F7685B"/>
<defs>
<filter id="filter0_d_0_1" x="365.052" y="209.724" width="178.263" height="178.263" filterUnits="userSpaceOnUse" color-interpolation-filters="sRGB">
<feFlood flood-opacity="0" result="BackgroundImageFix"/>
<feColorMatrix in="SourceAlpha" type="matrix" values="0 0 0 0 0 0 0 0 0 0 0 0 0 0 0 0 0 0 127 0" result="hardAlpha"/>
<feOffset dy="5.71975"/>
<feGaussianBlur stdDeviation="19.0658"/>
<feComposite in2="hardAlpha" operator="out"/>
<feColorMatrix type="matrix" values="0 0 0 0 0.835294 0 0 0 0 0 0 0 0 0 0 0 0 0 0.2 0"/>
<feBlend mode="normal" in2="BackgroundImageFix" result="effect1_dropShadow_0_1"/>
<feBlend mode="normal" in="SourceGraphic" in2="effect1_dropShadow_0_1" result="shape"/>
</filter>
<linearGradient id="paint0_linear_0_1" x1="213.061" y1="-0.000488281" x2="213.061" y2="667.304" gradientUnits="userSpaceOnUse">
<stop stop-color="#058868"/>
<stop offset="1" stop-color="#058868" stop-opacity="0.55"/>
</linearGradient>
<clipPath id="clip0_0_1">
<rect width="426" height="470" fill="white"/>
</clipPath>
</defs>
</svg>
