<svg width="24" height="23" viewBox="0 0 24 23" fill="none" xmlns="http://www.w3.org/2000/svg">
<rect width="24" height="23" fill="#F5F5F5"/>
<path d="M12.4155 0.120381C12.2924 0.0418813 12.1479 0 12 0C11.8521 0 11.7076 0.0418813 11.5845 0.120381L0.3345 7.308C0.20062 7.39355 0.0990016 7.5181 0.0446537 7.66325C-0.00969416 7.8084 -0.0138893 7.96645 0.032688 8.11406C0.0792652 8.26167 0.174145 8.39101 0.303313 8.48297C0.432481 8.57493 0.589087 8.62465 0.75 8.62477H3.5625V18.6874H2.25C2.05109 18.6874 1.86032 18.7632 1.71967 18.898C1.57902 19.0327 1.5 19.2156 1.5 19.4062C1.5 19.5968 1.57902 19.7796 1.71967 19.9144C1.86032 20.0492 2.05109 20.125 2.25 20.125H21.75C21.9489 20.125 22.1397 20.0492 22.2803 19.9144C22.421 19.7796 22.5 19.5968 22.5 19.4062C22.5 19.2156 22.421 19.0327 22.2803 18.898C22.1397 18.7632 21.9489 18.6874 21.75 18.6874H20.4375V8.62477H23.25C23.4109 8.62465 23.5675 8.57493 23.6967 8.48297C23.8259 8.39101 23.9207 8.26167 23.9673 8.11406C24.0139 7.96645 24.0097 7.8084 23.9553 7.66325C23.901 7.5181 23.7994 7.39355 23.6655 7.308L12.4155 0.120381V0.120381ZM18.5625 8.62477V18.6874H16.6875V8.62477H18.5625ZM14.8125 8.62477V18.6874H12.9375V8.62477H14.8125ZM11.0625 8.62477V18.6874H9.1875V8.62477H11.0625ZM7.3125 8.62477V18.6874H5.4375V8.62477H7.3125ZM12 5.74972C11.6022 5.74972 11.2206 5.59827 10.9393 5.32868C10.658 5.05909 10.5 4.69345 10.5 4.3122C10.5 3.93094 10.658 3.5653 10.9393 3.29572C11.2206 3.02613 11.6022 2.87468 12 2.87468C12.3978 2.87468 12.7794 3.02613 13.0607 3.29572C13.342 3.5653 13.5 3.93094 13.5 4.3122C13.5 4.69345 13.342 5.05909 13.0607 5.32868C12.7794 5.59827 12.3978 5.74972 12 5.74972V5.74972ZM0.75 21.5625C0.551088 21.5625 0.360322 21.6382 0.21967 21.773C0.0790176 21.9078 0 22.0906 0 22.2812C0 22.4719 0.0790176 22.6547 0.21967 22.7895C0.360322 22.9243 0.551088 23 0.75 23H23.25C23.4489 23 23.6397 22.9243 23.7803 22.7895C23.921 22.6547 24 22.4719 24 22.2812C24 22.0906 23.921 21.9078 23.7803 21.773C23.6397 21.6382 23.4489 21.5625 23.25 21.5625H0.75Z" fill="#058868"/>
</svg>
