<svg width="24" height="23" viewBox="0 0 24 23" fill="none" xmlns="http://www.w3.org/2000/svg">
<rect width="24" height="23" fill="#F5F5F5"/>
<path d="M23.2243 8.16919L16.0296 7.16548L12.8133 0.906549C12.7255 0.735184 12.581 0.596459 12.4024 0.512136C11.9547 0.299969 11.4107 0.476775 11.1868 0.906549L7.97056 7.16548L0.77582 8.16919C0.577462 8.19639 0.396106 8.28615 0.257255 8.42216C0.0893918 8.58777 -0.0031083 8.81059 7.97568e-05 9.04164C0.00326781 9.27269 0.101883 9.49307 0.274257 9.65436L5.47974 14.526L4.24992 21.4051C4.22108 21.5652 4.23953 21.7297 4.30317 21.8802C4.36682 22.0307 4.47311 22.161 4.61 22.2565C4.74688 22.3519 4.90889 22.4086 5.07764 22.4202C5.2464 22.4317 5.41515 22.3976 5.56476 22.3218L12.0001 19.074L18.4354 22.3218C18.6111 22.4116 18.8151 22.4415 19.0106 22.4089C19.5037 22.3273 19.8352 21.8784 19.7502 21.4051L18.5204 14.526L23.7259 9.65436C23.8676 9.52107 23.9611 9.34699 23.9894 9.15658C24.0659 8.68057 23.7202 8.23991 23.2243 8.16919V8.16919Z" fill="#FAAB1B"/>
</svg>
