<svg width="35" height="35" viewBox="0 0 35 35" fill="none" xmlns="http://www.w3.org/2000/svg">
<circle cx="17.1592" cy="17.1592" r="17.1592" fill="#3993CA" fill-opacity="0.2"/>
<path d="M7.40649 11.6357C7.40649 10.7312 8.19049 9.99707 9.15649 9.99707H22.6565C23.6225 9.99707 24.4065 10.7312 24.4065 11.6357V19.5949C24.4065 20.0295 24.2221 20.4463 23.8939 20.7536C23.5657 21.0609 23.1206 21.2335 22.6565 21.2335H9.15649C8.69237 21.2335 8.24725 21.0609 7.91906 20.7536C7.59087 20.4463 7.40649 20.0295 7.40649 19.5949V11.6357ZM10.4065 11.1675V12.1039C10.4065 12.2902 10.3275 12.4688 10.1868 12.6005C10.0462 12.7322 9.85541 12.8062 9.65649 12.8062H8.65649V14.2107H9.65649C9.95197 14.2107 10.2445 14.1563 10.5175 14.0504C10.7905 13.9445 11.0386 13.7893 11.2475 13.5937C11.4564 13.398 11.6222 13.1658 11.7352 12.9102C11.8483 12.6545 11.9065 12.3806 11.9065 12.1039V11.1675H10.4065ZM15.9065 17.9562C16.5032 17.9562 17.0755 17.7343 17.4975 17.3392C17.9194 16.9441 18.1565 16.4082 18.1565 15.8494C18.1565 15.2906 17.9194 14.7547 17.4975 14.3596C17.0755 13.9645 16.5032 13.7426 15.9065 13.7426C15.3098 13.7426 14.7375 13.9645 14.3155 14.3596C13.8935 14.7547 13.6565 15.2906 13.6565 15.8494C13.6565 16.4082 13.8935 16.9441 14.3155 17.3392C14.7375 17.7343 15.3098 17.9562 15.9065 17.9562V17.9562ZM8.65649 18.4244H9.65649C9.85541 18.4244 10.0462 18.4984 10.1868 18.6301C10.3275 18.7618 10.4065 18.9404 10.4065 19.1267V20.0631H11.9065V19.1267C11.9065 18.5679 11.6694 18.0321 11.2475 17.6369C10.8255 17.2418 10.2532 17.0199 9.65649 17.0199H8.65649V18.4244ZM21.4065 19.1267C21.4065 18.9404 21.4855 18.7618 21.6262 18.6301C21.7668 18.4984 21.9576 18.4244 22.1565 18.4244H23.1565V17.0199H22.1565C21.5598 17.0199 20.9875 17.2418 20.5655 17.6369C20.1435 18.0321 19.9065 18.5679 19.9065 19.1267V20.0631H21.4065V19.1267ZM21.4065 12.1039V11.1675H19.9065V12.1039C19.9065 12.3806 19.9647 12.6545 20.0778 12.9102C20.1908 13.1658 20.3566 13.398 20.5655 13.5937C20.9875 13.9888 21.5598 14.2107 22.1565 14.2107H23.1565V12.8062H22.1565C21.9576 12.8062 21.7668 12.7322 21.6262 12.6005C21.4855 12.4688 21.4065 12.2902 21.4065 12.1039ZM9.80749 22.6381C10.0708 23.0653 10.4496 23.4201 10.9059 23.6667C11.3621 23.9132 11.8797 24.0429 12.4065 24.0427H22.6565C23.2803 24.0427 23.8979 23.9276 24.4742 23.7041C25.0505 23.4806 25.5742 23.153 26.0153 22.7399C26.4563 22.3269 26.8062 21.8366 27.0449 21.297C27.2836 20.7574 27.4065 20.179 27.4065 19.5949V14.6789C27.4067 14.1857 27.2681 13.7011 27.0048 13.2739C26.7415 12.8467 26.3627 12.4919 25.9065 12.2453V19.5949C25.9065 20.402 25.5641 21.1761 24.9546 21.7468C24.3451 22.3175 23.5184 22.6381 22.6565 22.6381H9.80749Z" fill="#058868"/>
</svg>
