<svg width="35" height="35" viewBox="0 0 35 35" fill="none" xmlns="http://www.w3.org/2000/svg">
<rect width="35" height="35" fill="#F5F5F5"/>
<circle cx="17.6644" cy="17.6646" r="17.1592" fill="#3993CA" fill-opacity="0.2"/>
<path d="M28.3306 10.5024H8.83057C8.41572 10.5024 8.08057 10.8163 8.08057 11.2047V14.7161H29.0806V11.2047C29.0806 10.8163 28.7454 10.5024 28.3306 10.5024ZM8.08057 25.2504C8.08057 25.6388 8.41572 25.9526 8.83057 25.9526H28.3306C28.7454 25.9526 29.0806 25.6388 29.0806 25.2504V16.6474H8.08057V25.2504ZM21.6509 21.2122C21.6509 21.1157 21.7352 21.0367 21.8384 21.0367H25.7056C25.8087 21.0367 25.8931 21.1157 25.8931 21.2122V22.7924C25.8931 22.8889 25.8087 22.9679 25.7056 22.9679H21.8384C21.7352 22.9679 21.6509 22.8889 21.6509 22.7924V21.2122Z" fill="#058868"/>
</svg>
