<svg width="23" height="22" viewBox="0 0 23 22" fill="none" xmlns="http://www.w3.org/2000/svg">
<rect width="23" height="22" fill="#F5F5F5"/>
<path d="M11.6484 0.196289C5.5454 0.196289 0.552002 4.91415 0.552002 10.6804C0.552002 16.4467 5.5454 21.1646 11.6484 21.1646C17.7515 21.1646 22.7449 16.4467 22.7449 10.6804C22.7449 4.91415 17.7515 0.196289 11.6484 0.196289ZM11.6484 2.5261C13.5595 2.5261 15.3473 3.16679 16.8268 4.15696L4.74399 15.573C3.69599 14.1751 3.01788 12.486 3.01788 10.6804C3.01788 6.19554 6.90163 2.5261 11.6484 2.5261ZM11.6484 18.8347C9.73739 18.8347 7.94963 18.194 6.4701 17.2039L18.5529 5.78783C19.6009 7.18571 20.279 8.87482 20.279 10.6804C20.279 15.1653 16.3952 18.8347 11.6484 18.8347Z" fill="#D50000"/>
</svg>
